<svg width="2406" height="16014" viewBox="0 0 2406 16014" fill="none" xmlns="http://www.w3.org/2000/svg">
<path d="M1325.5 0.5C1639.5 84.3333 2204.7 496.9 1953.5 1476.5C1639.5 2701 305 2073.5 399 3470.5C493 4867.5 1199.5 3251 1623.5 3470.5C2047.5 3690 1969.5 4161 1796.5 4286.5C1623.5 4412 525 4993.5 540.5 5637C556 6280.5 1796.5 5699.5 1796.5 6202C1796.5 6704.5 399 6217.5 399 6924C399 7630.5 1529.5 7144 1498 7583.5C1466.5 8023 1011.5 7818.5 1011.5 8070C1011.5 8321.5 1796.5 8022.5 1796.5 8666.5C1796.5 9310.5 1906.5 10001 2283 10142.5C2659.5 10284 2142 12638.5 1011.5 12623C-119 12607.5 -433.5 15480 760 15558.5C1714.8 15621.3 1953.5 15888.3 1953.5 16014" stroke="black"/>
</svg>
