<svg width="500" height="247" viewBox="0 0 500 247" fill="none" xmlns="http://www.w3.org/2000/svg">
<path d="M37.3783 216.554C33.6932 213.123 31.9011 209.444 32.0021 205.516C32.103 201.588 33.6943 197.968 36.7759 194.658C39.8866 191.317 43.041 189.619 46.2391 189.565C49.406 189.482 51.6614 190.503 53.0054 192.628C53.741 193.779 53.965 194.979 53.6776 196.227C53.388 197.415 52.6979 198.375 51.6071 199.109C49.3071 200.64 47.2515 200.563 45.4402 198.876C44.9718 198.44 44.3127 197.739 43.463 196.774C42.6112 195.747 41.9521 195.046 41.4859 194.671C41.0196 194.295 40.5888 194.069 40.1936 193.992C39.372 193.81 38.4859 194.355 37.5351 195.627C35.3559 198.845 37.4985 203.463 43.963 209.48C50.3963 215.469 55.7497 216.168 60.0232 211.577C61.0117 210.516 61.7336 209.177 62.1889 207.56C62.6443 205.944 62.7288 204.507 62.4422 203.249L63.5212 203.03C64.0393 204.853 63.9888 206.817 63.3698 208.922C62.7507 211.027 61.6127 212.97 59.9556 214.75C52.3679 222.901 44.8421 223.502 37.3783 216.554Z" fill="black"/>
<path d="M93.0522 178.787C93.0037 179.388 92.6351 180.206 91.9464 181.24C91.23 182.242 90.2707 183.254 89.0683 184.277C86.4036 186.544 84.0526 187.172 82.0154 186.16C81.8283 189.233 80.0612 192.193 76.7141 195.04C74.9268 196.561 73.1026 197.413 71.2415 197.596C69.3852 197.718 67.7659 196.967 66.3835 195.343C64.5311 193.165 63.9521 190.773 64.6466 188.165C65.3134 185.525 67.5518 182.164 71.3616 178.083L73.104 176.18L71.0719 173.792C68.6665 170.964 66.8378 169.243 65.5859 168.628C64.334 168.012 63.0744 168.244 61.807 169.322C60.5722 170.372 59.9281 171.229 59.8747 171.89C59.7938 172.519 59.9955 173.02 60.4801 173.392C60.937 173.731 61.5834 174.162 62.4191 174.683C63.2548 175.204 63.8524 175.676 64.2118 176.099C65.0689 177.106 65.4441 178.272 65.3375 179.595C65.2357 180.858 64.6811 181.918 63.6737 182.775C62.6988 183.604 61.5636 183.982 60.268 183.908C58.9448 183.801 57.8547 183.244 56.9976 182.237C55.5876 180.579 55.2298 178.447 55.9242 175.839C56.6236 173.172 58.6631 170.4 62.0427 167.525C65.4548 164.622 68.4426 163.228 71.006 163.344C73.6019 163.432 76.3376 165.166 79.213 168.546L86.678 177.32C88.1434 179.042 89.2808 179.951 90.0904 180.046C90.8722 180.109 91.7213 179.527 92.6375 178.299L93.0522 178.787ZM72.3296 188.603C73.5427 189.7 74.8133 190.271 76.1413 190.318C77.4417 190.332 78.5793 189.924 79.5542 189.095C80.5616 188.238 81.0243 187.004 80.9423 185.393L73.892 177.106L72.3445 178.843C71.0156 180.31 70.2808 181.915 70.1402 183.659C70.0321 185.376 70.7619 187.024 72.3296 188.603Z" fill="black"/>
<path d="M124.458 153.986L127.109 152.194L127.826 153.255L114.569 162.214L113.852 161.153L116.504 159.362L106.47 144.514C104.774 142.004 103.196 140.47 101.737 139.911C100.278 139.352 98.8059 139.574 97.3211 140.578C95.3061 141.94 94.4143 144.087 94.6458 147.02L107.224 165.633L109.875 163.841L110.592 164.902L97.3355 173.86L96.6188 172.8L99.2701 171.008L84.2192 148.737L81.5679 150.529L80.8512 149.468L91.4565 142.301L93.3199 145.059C93.3704 143.685 93.8877 142.203 94.8717 140.611C95.8672 138.96 97.1957 137.573 98.8572 136.45C105.15 132.198 110.601 133.483 115.212 140.305L124.458 153.986Z" fill="black"/>
<path d="M164.267 137.992C164.348 140.72 164.055 142.848 163.39 144.376C162.744 145.941 161.467 147.203 159.561 148.16C157.654 149.117 155.956 149.444 154.468 149.141C152.998 148.876 151.919 148.058 151.23 146.685C150.56 145.35 150.405 144.091 150.766 142.908C151.164 141.705 151.917 140.826 153.022 140.271C154.128 139.716 155.168 139.456 156.141 139.493C157.114 139.53 157.878 139.719 158.432 140.062C159.94 140.975 161.057 141.25 161.782 140.886C162.544 140.504 162.886 139.52 162.807 137.937L162.367 131.068L136.32 112.563L134.032 113.712L133.458 112.568L148.844 104.844L149.419 105.988L146.559 107.423L161.803 118.676L160.801 100.274L156.225 102.571L155.651 101.427L165.031 96.718L165.605 97.8619L162.174 99.5847L164.267 137.992Z" fill="black"/>
<path d="M189.815 112.187C191.49 113.808 193.394 114.182 195.528 113.312C197.661 112.441 198.77 110.813 198.856 108.427C198.943 106.042 198.042 102.538 196.155 97.9164C194.253 93.2551 192.436 90.1027 190.705 88.4589C188.958 86.7757 187.018 86.3695 184.885 87.2403C182.751 88.1111 181.67 89.7509 181.639 92.1598C181.592 94.5292 182.521 98.0445 184.423 102.706C186.326 107.367 188.123 110.527 189.815 112.187ZM195.893 114.545C192.14 116.077 188.243 116.239 184.202 115.032C180.16 113.824 177.22 110.969 175.382 106.466C174.398 104.056 173.954 101.726 174.049 99.4751C174.183 97.2081 174.756 95.2233 175.766 93.5206C176.815 91.8017 178.076 90.3191 179.549 89.0727C181.006 87.7867 182.623 86.7809 184.401 86.0553C186.178 85.3296 188.037 84.9163 189.978 84.8155C191.942 84.6589 193.88 84.8354 195.793 85.3448C197.746 85.8381 199.563 86.8473 201.246 88.3725C202.929 89.8977 204.254 91.8454 205.221 94.2155C206.189 96.5856 206.597 98.8844 206.447 101.112C206.296 103.339 205.696 105.313 204.646 107.031C202.563 110.509 199.645 113.013 195.893 114.545Z" fill="black"/>
<path d="M238.45 96.696L237.428 93.4616C237.002 94.8043 236.077 96.1257 234.653 97.4257C233.257 98.6722 231.603 99.5976 229.691 100.202C222.449 102.49 217.588 99.7079 215.107 91.8558L210.132 76.1111L207.081 77.0752L206.695 75.8546L218.901 71.9983L224.685 90.3061C225.598 93.1947 226.674 95.1143 227.914 96.0649C229.154 97.0155 230.629 97.2208 232.337 96.6809C234.616 95.961 236.081 94.1556 236.734 91.2647L229.966 69.8444L226.915 70.8085L226.529 69.588L238.734 65.7316L247.218 92.5832L250.27 91.6191L250.655 92.8396L238.45 96.696Z" fill="black"/>
<path d="M291.971 80.9779L276.34 84.3947L276.067 83.1442L279.193 82.4608L273.453 56.2009L269.701 57.0209L269.428 55.7705L273.179 54.9504C271.175 45.7803 274.299 40.2932 282.552 38.4891C285.47 37.8513 287.837 37.9891 289.652 38.9024C291.459 39.7741 292.54 41.0227 292.895 42.6484C293.114 43.6487 292.953 44.5136 292.414 45.2429C291.907 45.9215 291.216 46.3564 290.341 46.5478C288.09 47.0398 286.673 45.952 286.09 43.2843C285.498 40.5749 284.409 39.3934 282.826 39.7396C281.658 39.9947 281.09 41.1891 281.119 43.3226C281.14 45.4145 281.619 48.6071 282.558 52.9004L290.686 51.1236L290.959 52.3741L282.831 54.1508L288.571 80.4108L291.698 79.7274L291.971 80.9779Z" fill="black"/>
<path d="M330.008 60.2572L310.91 63.2278C312.486 70.5824 315.951 73.8432 321.305 73.0104C322.738 72.7875 324.309 72.1977 326.017 71.2412C327.767 70.2781 328.969 69.1196 329.622 67.7659L330.606 68.2605C329.921 69.9647 328.54 71.4965 326.463 72.8559C324.385 74.2153 322.23 75.0687 319.995 75.4163C317.803 75.7573 315.789 75.8547 313.952 75.7085C312.11 75.5202 310.263 75.0302 308.413 74.2385C306.562 73.4468 304.988 72.0724 303.691 70.1152C302.435 68.1515 301.575 65.673 301.109 62.6796C300.316 57.5783 301.141 53.5853 303.586 50.7007C306.023 47.7739 309.245 45.999 313.25 45.3761C317.297 44.7465 320.859 45.5743 323.935 47.8594C327.053 50.1379 329.077 54.2705 330.008 60.2572ZM310.65 61.9729L320.958 60.3695C320.355 56.4908 319.405 53.1626 318.11 50.3847C316.856 47.6003 315.323 46.349 313.51 46.631C311.697 46.913 310.61 48.5286 310.248 51.4779C309.88 54.3851 309.978 57.6515 310.542 61.2772L310.65 61.9729Z" fill="black"/>
<path d="M365.068 55.4258L345.83 57.282C346.976 64.7157 350.245 68.1723 355.639 67.6519C357.083 67.5126 358.685 67.0151 360.446 66.1594C362.249 65.2996 363.516 64.2129 364.246 62.8993L365.2 63.4503C364.417 65.1119 362.949 66.5608 360.797 67.7973C358.644 69.0337 356.442 69.7605 354.192 69.9777C351.983 70.1908 349.967 70.171 348.142 69.9184C346.313 69.6233 344.498 69.0269 342.697 68.129C340.896 67.2312 339.404 65.7677 338.223 63.7385C337.083 61.7051 336.368 59.1808 336.077 56.1655C335.582 51.0267 336.638 47.0884 339.245 44.3506C341.849 41.5704 345.168 39.9856 349.203 39.5964C353.28 39.203 356.787 40.2363 359.725 42.6962C362.705 45.152 364.486 49.3952 365.068 55.4258ZM345.643 56.0141L356.027 55.0123C355.65 51.1051 354.895 47.7273 353.763 44.8788C352.673 42.0263 351.216 40.6881 349.389 40.8643C347.563 41.0405 346.384 42.5902 345.852 45.5135C345.315 48.3944 345.223 51.661 345.575 55.3134L345.643 56.0141Z" fill="black"/>
<path d="M389.34 64.7945L392.535 64.6104L392.608 65.8883L376.635 66.8089L376.561 65.531L379.756 65.3469L377.436 25.0937L374.241 25.2778L374.167 24L386.946 23.2634L389.34 64.7945Z" fill="black"/>
<path d="M430.606 63.1474L433.806 63.1646L433.8 64.4446L417.8 64.3583L417.807 63.0784L421.007 63.0956L421.152 36.216L418.592 36.2022L418.599 34.9222L430.758 34.9878L430.606 63.1474ZM431.38 26.543C431.372 28.079 430.81 29.3987 429.695 30.502C428.622 31.5629 427.297 32.0891 425.718 32.0806C424.182 32.0723 422.862 31.5318 421.759 30.4592C420.655 29.3439 420.108 28.0183 420.116 26.4823C420.125 24.9036 420.686 23.5626 421.802 22.4593C422.917 21.356 424.243 20.8084 425.779 20.8167C427.357 20.8252 428.677 21.387 429.738 22.5021C430.841 23.6174 431.388 24.9644 431.38 26.543Z" fill="black"/>
<path d="M454.964 36.427L454.288 52.0284C454.129 55.6943 454.181 57.9386 454.445 58.7615C454.71 59.5417 455.001 60.2162 455.318 60.7852C455.909 61.9212 456.993 62.5233 458.571 62.5917C460.19 62.6619 461.329 62.4977 461.987 62.0991L461.932 63.3779C459.823 64.7386 457.554 65.3662 455.124 65.261C451.543 65.1058 448.852 64.1351 447.05 62.3487C445.249 60.5624 444.443 57.474 444.633 53.0834L445.373 36.0114L440.641 35.8064L440.697 34.5276L445.428 34.7326C447.489 34.4803 449.343 33.5784 450.991 32.0269C452.64 30.4328 453.826 28.1994 454.548 25.3266L455.443 25.3654L455.019 35.1482L462.436 35.4696L462.381 36.7484L454.964 36.427Z" fill="black"/>
<path d="M480.694 29.0265C486.22 29.5036 490.127 31.1257 492.415 33.8927C493.689 35.5016 494.155 37.2977 493.813 39.2809C493.474 41.2216 492.699 42.7607 491.487 43.898C490.279 44.9928 488.927 45.7754 487.43 46.2457C485.979 46.6772 484.552 47.0893 483.148 47.482C479.938 48.4468 478.517 50.2727 478.885 52.9596L477.801 52.866C475.255 51.1045 474.235 49.0251 474.742 46.6278C474.961 45.5761 475.535 44.6406 476.462 43.8213C477.393 42.9595 478.35 42.2927 479.333 41.8208C480.315 41.3489 481.267 40.7459 482.187 40.0116C483.153 39.2385 483.781 38.4148 484.07 37.5405C484.771 35.3741 484.592 33.7312 483.532 32.6119C482.476 31.4501 481.162 30.8013 479.589 30.6655C478.016 30.5297 476.481 30.697 474.985 31.1673C473.488 31.6377 472.716 32.1491 472.668 32.7018C472.624 33.2119 472.798 33.6766 473.19 34.0958C473.586 34.4726 474.03 34.7893 474.521 35.0459C475.013 35.3024 475.446 35.7466 475.82 36.3785C476.193 37.0103 476.338 37.815 476.254 38.7927C476.173 39.7279 475.696 40.5432 474.822 41.2387C473.948 41.9341 472.916 42.2304 471.726 42.1276C470.536 42.0249 469.515 41.4443 468.664 40.3858C467.856 39.3311 467.514 38.081 467.639 36.6358C467.848 34.2128 469.151 32.2696 471.547 30.8063C473.989 29.3041 477.038 28.7109 480.694 29.0265ZM477.377 66.7048C475.761 66.5653 474.429 65.8722 473.381 64.6254C472.332 63.3786 471.878 61.9475 472.017 60.3322C472.16 58.6743 472.855 57.3211 474.102 56.2725C475.349 55.2238 476.78 54.7692 478.395 54.9087C480.053 55.0518 481.406 55.7468 482.455 56.9936C483.504 58.2405 483.956 59.6928 483.813 61.3506C483.674 62.9659 482.981 64.2979 481.734 65.3466C480.487 66.3952 479.035 66.8479 477.377 66.7048Z" fill="black"/>
</svg>
