<svg width="191" height="627" viewBox="0 0 191 627" fill="none" xmlns="http://www.w3.org/2000/svg">
<path d="M144.956 606.125L143.896 606.843L134.203 592.538L135.263 591.82L137.166 594.628L146.111 580.218L135.141 582.626L132.14 587.21L133.468 589.17L132.408 589.888L123.434 576.643L124.493 575.925L126.073 578.256L135.017 563.846L118.857 567.606L121.729 571.845L120.669 572.563L114.818 563.927L115.877 563.209L118.031 566.388L147.411 559.546L148.165 560.659L136.299 580.913L158.54 575.971L159.294 577.083L143.269 603.635L144.956 606.125Z" fill="black"/>
<path d="M119.853 513.809L118.345 510.987L119.474 510.383L127.013 524.496L125.884 525.099L124.376 522.277L108.57 530.72C105.898 532.148 104.209 533.558 103.502 534.951C102.795 536.345 102.864 537.832 103.708 539.412C104.854 541.558 106.898 542.667 109.84 542.74L129.654 532.155L128.146 529.333L129.275 528.73L136.814 542.842L135.685 543.445L134.177 540.623L98.6134 559.621L100.121 562.444L98.9922 563.047L92.961 551.757L107.751 543.856C106.353 543.684 104.913 543.026 103.432 541.882C101.95 540.739 100.727 539.264 99.7618 537.457C96.1833 530.759 98.0257 525.469 105.289 521.589L119.853 513.809Z" fill="black"/>
<path d="M102.97 476.61C103.532 476.828 104.21 477.415 105.004 478.371C105.759 479.344 106.454 480.553 107.09 481.998C108.5 485.2 108.429 487.632 106.877 489.295C109.767 490.353 112.098 492.893 113.869 496.915C114.814 499.063 115.109 501.055 114.751 502.89C114.338 504.704 113.155 506.041 111.202 506.9C108.586 508.052 106.128 507.923 103.828 506.511C101.489 505.117 98.9094 502.01 96.0885 497.192L94.764 494.978L91.8939 496.242C88.4966 497.737 86.324 498.997 85.3761 500.021C84.4281 501.044 84.2895 502.317 84.96 503.84C85.6134 505.324 86.2494 506.186 86.8681 506.427C87.4477 506.684 87.9851 506.634 88.4802 506.276C88.9362 505.935 89.5336 505.439 90.2723 504.788C91.011 504.136 91.6342 503.699 92.1419 503.475C93.3524 502.942 94.5763 502.916 95.8136 503.397C96.9947 503.856 97.8518 504.69 98.3848 505.901C98.9006 507.072 98.9377 508.268 98.4959 509.488C98.0151 510.726 97.1694 511.611 95.9589 512.144C93.9674 513.021 91.8218 512.753 89.5219 511.342C87.1658 509.908 85.0937 507.161 83.3055 503.1C81.5002 499 81.0197 495.738 81.8642 493.315C82.6914 490.853 85.1356 488.728 89.1967 486.94L99.7399 482.297C101.809 481.386 103.006 480.556 103.329 479.808C103.613 479.077 103.298 478.097 102.384 476.867L102.97 476.61ZM106.446 499.274C107.844 498.426 108.755 497.372 109.18 496.113C109.565 494.871 109.5 493.664 108.984 492.493C108.451 491.282 107.401 490.486 105.834 490.103L95.8769 494.488L97.0982 496.467C98.1234 498.161 99.4515 499.324 101.083 499.958C102.696 500.553 104.484 500.325 106.446 499.274Z" fill="black"/>
<path d="M71.1213 468.349L85.7596 462.91C89.1992 461.632 91.247 460.712 91.9029 460.15C92.5188 459.603 93.0272 459.072 93.4283 458.559C94.2453 457.573 94.3789 456.34 93.8291 454.86C93.2644 453.34 92.6706 452.355 92.0478 451.903L93.2476 451.457C95.3208 452.872 96.7808 454.719 97.6278 456.999C98.876 460.359 99.0272 463.215 98.0812 465.57C97.1352 467.924 94.6024 469.866 90.4829 471.397L74.4648 477.348L76.1142 481.788L74.9143 482.233L73.2649 477.794C72.2317 475.993 70.6802 474.635 68.6106 473.72C66.501 472.819 63.9823 472.595 61.0546 473.045L60.7425 472.205L69.9214 468.795L67.3358 461.836L68.5357 461.39L71.1213 468.349Z" fill="black"/>
<path d="M84.2526 414.973C85.1363 418.314 84.5801 421.55 82.5839 424.682C80.5877 427.814 77.1766 430.018 72.3506 431.295C67.5245 432.571 63.4339 432.373 60.0788 430.701C56.7236 429.029 54.5932 426.481 53.6877 423.057C53.2404 421.366 53.171 419.685 53.4794 418.015C53.7879 416.344 54.556 414.994 55.7839 413.963L41.182 417.825L42.0003 420.919L40.7629 421.246L37.4898 408.871L77.7068 398.234L76.8885 395.14L78.126 394.813L81.399 407.188L78.5529 407.94C81.2399 408.421 83.1398 410.765 84.2526 414.973ZM67.849 410.772L57.6401 413.472C55.7072 415.175 54.9809 416.934 55.4609 418.749C55.93 420.522 57.3649 421.776 59.7655 422.509C62.1662 423.242 65.6145 423.014 70.1106 421.825C74.5654 420.646 77.6494 419.125 79.3627 417.259C81.076 415.394 81.5428 413.571 80.7631 411.791C80.3253 410.804 79.7881 410.107 79.1512 409.702C77.6799 408.811 73.9125 409.168 67.849 410.772Z" fill="black"/>
<path d="M71.024 379.334C72.9488 378.02 73.6998 376.23 73.2769 373.965C72.854 371.7 71.483 370.285 69.1638 369.72C66.8447 369.155 63.2315 369.33 58.3243 370.247C53.3752 371.171 49.9212 372.315 47.9622 373.679C45.9614 375.051 45.1724 376.869 45.5953 379.134C46.0182 381.399 47.4063 382.789 49.7595 383.304C52.0708 383.828 55.7011 383.627 60.6502 382.703C65.5993 381.779 69.0573 380.656 71.024 379.334ZM74.5586 373.856C75.3026 377.841 74.6759 381.69 72.6785 385.405C70.6811 389.121 67.2918 391.424 62.5104 392.317C59.952 392.795 57.58 392.76 55.3945 392.214C53.2012 391.625 51.3724 390.664 49.9083 389.332C48.4363 387.957 47.2384 386.423 46.3145 384.729C45.3486 383.043 44.6895 381.256 44.337 379.369C43.9846 377.481 43.9546 375.577 44.247 373.656C44.4896 371.701 45.0532 369.838 45.9378 368.067C46.8146 366.254 48.1696 364.677 50.0026 363.337C51.8357 361.996 54.0105 361.091 56.527 360.621C59.0435 360.151 61.3775 360.214 63.5289 360.811C65.6803 361.408 67.4919 362.393 68.9639 363.768C71.9498 366.509 73.8147 369.872 74.5586 373.856Z" fill="black"/>
<path d="M73.5573 317.403C76.1031 318.388 77.9506 319.484 79.1 320.69C80.2919 321.894 80.9588 323.56 81.1005 325.688C81.2423 327.817 80.8845 329.508 80.0273 330.763C79.2127 332.014 78.0391 332.691 76.5065 332.793C75.0164 332.892 73.7961 332.546 72.8453 331.754C71.8918 330.92 71.3739 329.885 71.2917 328.651C71.2095 327.416 71.3741 326.357 71.7857 325.475C72.1973 324.592 72.6685 323.962 73.1993 323.585C74.6269 322.549 75.3138 321.626 75.26 320.818C75.2033 319.966 74.4299 319.269 72.9399 318.727L66.4393 316.466L39.2728 333.284L39.4429 335.839L38.1657 335.924L37.0218 318.746L38.299 318.661L38.5116 321.854L54.8004 312.174L37.4527 305.953L37.7929 311.062L36.5157 311.147L35.8183 300.674L37.0955 300.589L37.3506 304.42L73.5573 317.403Z" fill="black"/>
<path d="M61.2711 282.643C63.4178 281.735 64.5079 280.13 64.5413 277.826C64.5748 275.522 63.5107 273.864 61.3492 272.851C59.1876 271.838 55.6111 271.296 50.6197 271.223C45.5855 271.15 41.9735 271.588 39.7834 272.538C37.5508 273.487 36.4177 275.113 36.3843 277.417C36.3508 279.721 37.4365 281.358 39.6413 282.329C41.8035 283.299 45.4016 283.821 50.4358 283.894C55.4699 283.967 59.0817 283.55 61.2711 282.643ZM65.8193 277.972C65.7605 282.025 64.3847 285.675 61.692 288.922C58.9993 292.168 55.2212 293.756 50.3577 293.686C47.7553 293.648 45.437 293.145 43.4028 292.177C41.3693 291.166 39.7667 289.862 38.5951 288.266C37.4241 286.628 36.5532 284.887 35.9826 283.044C35.3693 281.2 35.0766 279.318 35.1044 277.399C35.1323 275.479 35.4795 273.606 36.146 271.781C36.7706 269.913 37.6915 268.198 38.909 266.637C40.1271 265.033 41.7671 263.755 43.8291 262.804C45.8912 261.852 48.202 261.395 50.7618 261.432C53.3215 261.469 55.5968 261.993 57.5877 263.003C59.5786 264.014 61.1595 265.338 62.3305 266.977C64.7152 270.254 65.8782 273.919 65.8193 277.972Z" fill="black"/>
<path d="M67.7599 233.592L64.385 233.252C65.45 234.174 66.2981 235.546 66.9295 237.368C67.5227 239.143 67.7188 241.028 67.5179 243.023C66.7571 250.58 62.2801 253.945 54.0869 253.12L37.6579 251.466L37.3374 254.65L36.0638 254.522L37.346 241.786L56.4495 243.71C59.4636 244.013 61.6523 243.783 63.0156 243.02C64.3789 242.257 65.1503 240.984 65.3298 239.201C65.5692 236.823 64.4901 234.764 62.0926 233.021L39.7416 230.771L39.421 233.955L38.1474 233.827L39.4297 221.091L67.448 223.912L67.7686 220.728L69.0422 220.856L67.7599 233.592Z" fill="black"/>
<path d="M79.5909 163.067L80.3419 159.956L81.5861 160.256L77.8313 175.81L76.587 175.509L77.338 172.398L59.9184 168.193C56.9737 167.482 54.7741 167.412 53.3196 167.982C51.865 168.553 50.9275 169.709 50.5069 171.451C49.9362 173.815 50.7249 176.003 52.8729 178.014L74.7096 183.286L75.4605 180.175L76.7048 180.475L72.9499 196.029L71.7056 195.728L72.4566 192.618L33.2627 183.155L32.5117 186.266L31.2674 185.966L34.2713 173.523L50.5711 177.458C49.6415 176.4 49.0037 174.951 48.6576 173.112C48.3116 171.272 48.3789 169.357 48.8595 167.367C50.6419 159.984 55.5354 157.259 63.5401 159.192L79.5909 163.067Z" fill="black"/>
<path d="M80.1139 123.592L73.9658 141.916C81.2208 143.9 85.7102 142.324 87.4338 137.187C87.8952 135.811 88.0942 134.145 88.0305 132.189C87.9805 130.192 87.5047 128.592 86.603 127.389L87.4948 126.744C88.6929 128.136 89.4177 130.066 89.6692 132.536C89.9207 135.006 89.6868 137.312 88.9675 139.456C88.2617 141.56 87.4216 143.393 86.4471 144.956C85.4321 146.506 84.1475 147.92 82.5934 149.199C81.0393 150.477 79.0949 151.243 76.7602 151.495C74.4391 151.706 71.8425 151.33 68.9705 150.366C64.076 148.724 60.9103 146.154 59.4735 142.657C57.9963 139.146 57.9023 135.469 59.1916 131.626C60.4945 127.743 62.8679 124.961 66.3118 123.282C69.7692 121.561 74.3699 121.665 80.1139 123.592ZM72.732 141.57L76.0503 131.68C72.3288 130.431 68.9368 129.743 65.8743 129.615C62.8254 129.448 61.0091 130.233 60.4255 131.973C59.8419 133.712 60.7763 135.421 63.2286 137.098C65.6405 138.763 68.5858 140.179 72.0645 141.346L72.732 141.57Z" fill="black"/>
<path d="M105.729 91.5225C105.954 92.0825 105.988 92.9789 105.833 94.2116C105.638 95.4275 105.23 96.7613 104.61 98.213C103.235 101.43 101.41 103.04 99.1359 103.042C100.338 105.876 100.075 109.313 98.3485 113.355C97.4264 115.512 96.1731 117.088 94.5887 118.081C92.9818 119.019 91.1974 119.068 89.2357 118.23C86.607 117.107 85.0223 115.223 84.4817 112.579C83.9018 109.919 84.4074 105.912 85.9984 100.56L86.7101 98.0807L83.8264 96.8484C80.413 95.3898 78.0088 94.664 76.6138 94.6711C75.2188 94.6782 74.1943 95.4468 73.5405 96.9769C72.9034 98.4678 72.7084 99.5213 72.9556 100.137C73.1635 100.737 73.5672 101.095 74.1668 101.212C74.7272 101.312 75.4976 101.409 76.4781 101.503C77.4587 101.598 78.2039 101.754 78.714 101.972C79.9303 102.491 80.7856 103.367 81.2799 104.599C81.7517 105.775 81.7278 106.971 81.208 108.188C80.7051 109.365 79.8572 110.209 78.6644 110.72C77.4324 111.214 76.2083 111.201 74.992 110.682C72.991 109.827 71.7202 108.077 71.1796 105.433C70.6165 102.734 71.2068 99.3436 72.9504 95.2632C74.7108 91.1436 76.7642 88.5643 79.1105 87.5254C81.4736 86.4472 84.6953 86.7799 88.7757 88.5236L99.369 93.0503C101.448 93.9389 102.872 94.2455 103.639 93.9702C104.367 93.6781 104.868 92.7784 105.14 91.2711L105.729 91.5225ZM91.5543 109.546C93.1291 109.987 94.5212 109.933 95.7307 109.382C96.9011 108.815 97.7377 107.943 98.2407 106.766C98.7604 105.55 98.6246 104.239 97.8331 102.834L87.8283 98.5585L87.2172 100.803C86.6814 102.708 86.7393 104.473 87.3909 106.097C88.0592 107.682 89.4471 108.832 91.5543 109.546Z" fill="black"/>
<path d="M117.478 70.9722L110.087 85.1629L108.952 84.5717L110.43 81.7335L86.5898 69.3172L85.1117 72.1554L83.9764 71.5641L89.889 60.2115L96.6438 63.7295C94.9669 62.4232 93.7685 61.0294 93.0487 59.548C92.3486 58.0289 92.0853 56.6409 92.2587 55.3843C92.4518 54.0898 92.8046 52.9506 93.317 51.9667C93.8491 50.945 94.5409 50.0785 95.3923 49.3674C96.2256 48.5987 97.3092 48.2731 98.6431 48.3905C99.9392 48.4883 101.028 49.031 101.908 50.0188C102.751 50.9869 103.124 52.119 103.026 53.4151C102.948 54.6733 102.512 55.649 101.718 56.342C100.924 57.0349 100.145 57.4228 99.3801 57.5056C98.5775 57.5687 97.8719 57.538 97.2633 57.4134C95.6661 57.0627 94.6999 57.2089 94.3649 57.8522C93.9904 58.5712 94.8253 60.0163 96.8696 62.1874C98.876 64.3388 101.261 66.1339 104.023 67.5726L114.865 73.2191L116.343 70.3809L117.478 70.9722Z" fill="black"/>
<path d="M99.2423 28.7714C102.113 24.0254 105.295 21.2378 108.788 20.4088C110.795 19.9769 112.612 20.3529 114.239 21.5368C115.83 22.6986 116.868 24.0743 117.353 25.6639C117.801 27.2314 117.905 28.7904 117.665 30.3408C117.411 31.8326 117.15 33.2952 116.881 34.7284C116.328 38.0339 117.338 40.1156 119.91 40.9736L119.347 41.9045C116.642 43.4096 114.326 43.405 112.4 41.8907C111.553 41.2291 110.967 40.3014 110.642 39.1075C110.281 37.8916 110.106 36.7385 110.117 35.6482C110.128 34.558 110.008 33.438 109.756 32.2883C109.489 31.08 109.028 30.1527 108.372 29.5064C106.738 27.92 105.185 27.3547 103.713 27.8105C102.204 28.2441 101.041 29.1364 100.224 30.4871C99.407 31.8379 98.8786 33.2885 98.6389 34.839C98.3992 36.3894 98.5167 37.3081 98.9913 37.5952C99.4294 37.8602 99.9231 37.9095 100.473 37.7432C100.985 37.5547 101.466 37.2967 101.913 36.969C102.361 36.6413 102.95 36.4495 103.682 36.3936C104.414 36.3377 105.2 36.5636 106.04 37.0715C106.843 37.5573 107.363 38.3458 107.601 39.4369C107.838 40.5281 107.648 41.5847 107.03 42.6069C106.411 43.6292 105.44 44.2879 104.114 44.5832C102.811 44.842 101.538 44.596 100.297 43.8452C98.2161 42.5865 97.0489 40.5591 96.7955 37.763C96.5276 34.9083 97.3432 31.9111 99.2423 28.7714ZM131.573 48.402C130.734 49.7893 129.524 50.6777 127.942 51.0672C126.36 51.4567 124.875 51.2319 123.488 50.3927C122.064 49.5315 121.157 48.31 120.768 46.728C120.378 45.1461 120.603 43.6615 121.442 42.2742C122.304 40.8504 123.525 39.9437 125.107 39.5542C126.689 39.1648 128.192 39.4006 129.616 40.2618C131.003 41.1009 131.891 42.3115 132.281 43.8934C132.67 45.4753 132.435 46.9782 131.573 48.402Z" fill="black"/>
</svg>
