<svg width="305" height="344" viewBox="0 0 305 344" fill="none" xmlns="http://www.w3.org/2000/svg">
<path d="M57.331 120.114L59.4991 117.76L60.4405 118.627L49.6002 130.395L48.6587 129.528L50.8268 127.175L31.0564 108.963L29.322 110.846L28.3806 109.978L36.6192 101.035L57.331 120.114ZM30.7959 94.8874C31.9256 95.9281 32.5227 97.2322 32.587 98.7997C32.6488 100.307 32.145 101.641 31.0754 102.802C30.0347 103.932 28.7463 104.543 27.2102 104.637C25.6427 104.701 24.2941 104.213 23.1643 103.172C22.0032 102.103 21.3905 100.784 21.3262 99.2165C21.2618 97.649 21.75 96.3003 22.7907 95.1706C23.8603 94.0095 25.1643 93.4125 26.703 93.3795C28.2705 93.3152 29.6348 93.8178 30.7959 94.8874Z" fill="black"/>
<path d="M46.0172 82.2791L44.5255 84.1578C43.7055 84.9049 42.7201 85.3122 41.5693 85.3795C40.4212 85.3865 39.3731 84.8697 38.4248 83.8289C37.4477 82.7566 36.9757 81.5417 37.0086 80.1841C37.0415 78.8265 37.6729 77.5874 38.9029 76.4666C40.1644 75.3172 41.6205 74.8563 43.271 75.084C44.9531 75.283 46.4838 76.1395 47.8632 77.6533C49.2138 79.1356 49.9809 81.1495 50.1646 83.6951C50.3799 86.2119 49.8606 88.9362 48.6068 91.8679L47.5429 91.3654C49.0132 87.0242 48.9868 84.0178 47.4638 82.3463C47.004 81.8417 46.5218 81.8193 46.0172 82.2791Z" fill="black"/>
<path d="M124.385 69.99L127.134 68.3517L127.789 69.4513L114.045 77.6425L113.389 76.543L116.138 74.9047L106.964 59.5112C105.413 56.909 103.925 55.2874 102.5 54.6466C101.075 54.0058 99.5932 54.1441 98.0538 55.0615C97.1742 55.5857 96.4108 56.3884 95.7637 57.4694C95.1166 58.5504 94.7545 59.7348 94.6775 61.0224C95.9037 62.0797 97.2158 63.7812 98.6137 66.1269L107.067 80.3109L109.816 78.6727L110.471 79.7722L96.1773 88.2911L95.522 87.1916L98.8206 85.2257L89.6464 69.8322C88.0955 67.2299 86.6076 65.6084 85.1826 64.9676C83.7576 64.3267 82.2755 64.465 80.7361 65.3824C78.647 66.6275 77.6347 68.7209 77.6991 71.6627L89.1996 90.9596L91.9485 89.3213L92.6038 90.4208L78.8595 98.6121L78.2042 97.5125L80.9531 95.8743L67.1918 72.784L64.443 74.4223L63.7877 73.3227L74.783 66.7697L76.4868 69.6285C76.6153 68.2606 77.2159 66.8099 78.2888 65.2764C79.3765 63.6845 80.7816 62.3752 82.5042 61.3485C86.8657 58.7492 90.438 58.2841 93.2209 59.9534C93.4748 58.2126 94.2041 56.5611 95.4088 54.9988C96.5916 53.3998 98.0627 52.076 99.8219 51.0276C106.346 47.1395 111.716 48.7322 115.931 55.8059L124.385 69.99Z" fill="black"/>
<path d="M174.721 64.8889L177.897 65.2859L177.738 66.556L161.862 64.5713L162.02 63.3012L165.196 63.6981L170.197 23.6895L167.022 23.2926L167.18 22.0225L179.882 23.6102L174.721 64.8889Z" fill="black"/>
<path d="M200.902 74.6329L203.707 76.1732L203.091 77.2952L189.067 69.5939L189.683 68.4719L192.488 70.0122L205.426 46.4508L203.182 45.2186L203.798 44.0966L214.457 49.9496L200.902 74.6329ZM219.028 42.8219C218.289 44.1682 217.166 45.0606 215.659 45.499C214.211 45.9206 212.795 45.7514 211.411 44.9916C210.065 44.2522 209.162 43.1481 208.703 41.6792C208.265 40.1729 208.415 38.7465 209.155 37.4001C209.914 36.0164 211.048 35.1053 212.554 34.6669C214.06 34.2285 215.487 34.3789 216.833 35.1182C218.217 35.8781 219.109 37.0009 219.51 38.4867C219.949 39.9931 219.788 41.4381 219.028 42.8219Z" fill="black"/>
<path d="M222.891 94.9121C225.696 98.3509 228.04 99.3018 229.925 97.7647C230.983 96.9018 231.357 95.6056 231.048 93.8759C230.771 92.1193 230.16 90.2225 229.215 88.1857C228.27 86.1488 227.404 84.0745 226.618 81.9628C225.859 79.8842 225.646 77.8005 225.979 75.7116C226.34 73.6558 227.593 71.9181 229.739 70.4986C231.884 69.0791 234.343 68.7528 237.116 69.5197C239.916 70.3197 242.408 72.0588 244.592 74.7371C246.803 77.4484 248.153 79.9813 248.641 82.3357C249.13 84.69 248.728 86.5596 247.435 87.9445C246.65 88.8048 245.702 89.3302 244.591 89.5205C243.507 89.744 242.557 89.3897 241.742 88.4578C240.954 87.5589 240.568 86.5797 240.585 85.52C240.629 84.4934 241.011 83.7134 241.732 83.1802C242.454 82.647 243.281 82.4127 244.215 82.4772C245.181 82.5148 245.83 82.3987 246.161 82.1291C246.723 81.6707 246.691 80.788 246.066 79.4811C245.5 78.1804 244.638 76.8191 243.479 75.3973C242.346 74.0085 241.102 73.124 239.745 72.7435C238.389 72.3631 237.248 72.5504 236.322 73.3055C235.396 74.0605 235.048 75.2532 235.276 76.8837C235.532 78.5472 236.092 80.3478 236.956 82.2855C237.854 84.1962 238.672 86.1443 239.41 88.1299C240.208 90.1215 240.49 92.1213 240.256 94.1292C240.049 96.1703 239.085 97.8919 237.366 99.2941C235.084 101.155 232.589 101.841 229.879 101.354C227.202 100.839 224.528 98.9449 221.859 95.6715C219.189 92.398 217.514 89.3318 216.834 86.4728C216.182 83.6469 216.551 81.501 217.943 80.0352C218.728 79.1749 219.676 78.6496 220.787 78.4592C221.898 78.2688 222.848 78.6231 223.636 79.522C224.424 80.4208 224.796 81.3836 224.753 82.4102C224.736 83.4699 224.367 84.2663 223.646 84.7995C222.924 85.3327 222.08 85.5806 221.114 85.543C220.18 85.4785 219.548 85.581 219.218 85.8507C218.556 86.39 218.631 87.5954 219.441 89.467C220.312 91.3446 221.462 93.1597 222.891 94.9121Z" fill="black"/>
<path d="M264.065 121.015L248.821 124.405C245.239 125.201 243.085 125.833 242.359 126.3C241.674 126.759 241.098 127.215 240.63 127.668C239.686 128.534 239.385 129.737 239.728 131.278C240.08 132.861 240.534 133.918 241.089 134.45L239.84 134.728C237.979 133.044 236.785 131.014 236.257 128.64C235.479 125.142 235.719 122.291 236.978 120.088C238.237 117.885 241.011 116.307 245.301 115.353L261.981 111.644L260.953 107.021L262.203 106.743L263.231 111.366C264.009 113.292 265.36 114.849 267.285 116.038C269.252 117.218 271.717 117.784 274.679 117.738L274.873 118.612L265.314 120.738L266.926 127.985L265.676 128.262L264.065 121.015Z" fill="black"/>
<path d="M252.984 171.76L252.634 152.435C245.133 152.998 241.432 155.988 241.53 161.406C241.557 162.856 241.928 164.493 242.643 166.315C243.36 168.179 244.344 169.527 245.597 170.358L244.973 171.265C243.378 170.355 242.048 168.779 240.983 166.537C239.918 164.294 239.365 162.043 239.325 159.782C239.284 157.563 239.461 155.554 239.855 153.755C240.292 151.955 241.028 150.192 242.064 148.466C243.1 146.74 244.675 145.368 246.79 144.348C248.906 143.371 251.479 142.855 254.508 142.8C259.669 142.706 263.513 144.066 266.039 146.88C268.608 149.692 269.929 153.125 270.002 157.178C270.077 161.273 268.773 164.689 266.091 167.426C263.411 170.206 259.041 171.651 252.984 171.76ZM253.912 152.348L254.101 162.779C258.026 162.707 261.452 162.219 264.38 161.312C267.309 160.448 268.757 159.099 268.724 157.265C268.691 155.43 267.237 154.134 264.365 153.375C261.534 152.616 258.285 152.269 254.616 152.335L253.912 152.348Z" fill="black"/>
<path d="M237.555 215.681L237.21 218.862L235.937 218.724L237.667 202.818L238.939 202.956L238.593 206.137L256.408 208.074C259.42 208.402 261.61 208.189 262.98 207.437C264.349 206.685 265.13 205.418 265.324 203.636C265.587 201.218 264.524 199.15 262.136 197.431L239.804 195.003L239.458 198.184L238.185 198.046L239.915 182.14L241.187 182.278L240.842 185.459L267.564 188.365L267.91 185.184L269.182 185.322L267.799 198.047L264.49 197.687C265.506 198.613 266.303 199.966 266.882 201.745C267.498 203.572 267.699 205.482 267.482 207.476C266.661 215.026 262.157 218.356 253.971 217.466L237.555 215.681Z" fill="black"/>
<path d="M233.568 239.87L233.027 243.024L231.765 242.808L234.468 227.038L235.73 227.254L235.189 230.408L261.683 234.949L262.115 232.426L263.377 232.642L261.323 244.627L233.568 239.87ZM269.552 246.622C268.038 246.362 266.828 245.592 265.922 244.312C265.051 243.08 264.749 241.686 265.016 240.13C265.275 238.616 266.024 237.403 267.263 236.49C268.544 235.584 269.941 235.26 271.455 235.52C273.011 235.787 274.242 236.56 275.148 237.841C276.054 239.122 276.377 240.519 276.118 242.033C275.851 243.589 275.081 244.799 273.807 245.663C272.527 246.569 271.108 246.889 269.552 246.622Z" fill="black"/>
<path d="M224.596 283.983L223.919 287.11L222.668 286.84L226.052 271.202L227.303 271.472L226.626 274.6L244.141 278.39C247.102 279.03 249.302 279.048 250.743 278.443C252.184 277.838 253.093 276.66 253.472 274.908C253.987 272.531 253.146 270.363 250.951 268.404L228.995 263.653L228.318 266.781L227.067 266.51L230.451 250.872L231.702 251.143L231.025 254.27L257.297 259.955L257.974 256.827L259.225 257.098L256.518 269.609L253.265 268.905C254.178 269.932 254.829 271.36 255.219 273.191C255.641 275.072 255.641 276.993 255.216 278.953C253.61 286.376 248.783 289.216 240.735 287.475L224.596 283.983Z" fill="black"/>
<path d="M224.379 304.527C223.222 304.228 222.369 304.801 221.82 306.246L219.067 316.904C218.117 320.581 216.67 322.939 214.727 323.979C212.784 325.02 210.714 325.014 208.518 323.962C206.312 322.951 204.547 320.997 203.224 318.1C201.902 315.202 201.784 311.646 202.873 307.433C204.868 299.708 207.285 295.044 210.123 293.441C211.245 292.85 212.41 292.776 213.617 293.22C214.783 293.654 215.657 294.364 216.239 295.352C216.78 296.329 217.067 297.35 217.1 298.416C218.557 297.383 220.112 297.079 221.764 297.506C223.416 297.933 224.755 298.807 225.779 300.13C226.835 301.504 227.584 302.953 228.027 304.478C230.99 300.176 234.722 298.606 239.225 299.769C242.571 300.633 244.758 302.829 245.786 306.355C246.845 309.934 246.873 313.665 245.869 317.548C245.389 319.407 244.62 321.191 243.561 322.901C245.087 322.281 246.739 322.201 248.515 322.66C250.291 323.119 251.603 324.097 252.45 325.594C253.328 327.142 253.532 328.826 253.063 330.643C252.583 332.502 251.729 333.758 250.503 334.411C249.308 335.115 248.111 335.313 246.913 335.004C245.715 334.694 244.799 334.061 244.165 333.104C243.52 332.188 243.352 331.131 243.662 329.933C243.96 328.777 244.593 327.949 245.559 327.449C246.526 326.949 247.401 326.801 248.186 327.004C249.012 327.217 249.677 327.543 250.181 327.982C250.715 328.472 251.024 328.728 251.106 328.75C251.799 328.796 252.092 328.431 251.984 327.654C251.876 326.877 251.437 326.103 250.667 325.331C249.928 324.611 248.98 324.102 247.823 323.803C245.551 323.216 243.472 323.759 241.586 325.431C238.685 328.472 235.479 329.538 231.968 328.631C228.456 327.724 226.171 325.569 225.111 322.167C224.092 318.775 224.1 315.075 225.135 311.068C225.637 309.127 226.286 307.466 227.083 306.085C226.313 305.313 225.412 304.794 224.379 304.527ZM234.307 319.32C237.859 320.238 240.383 320.449 241.877 319.954C243.371 319.458 244.331 318.384 244.758 316.732C245.174 315.121 244.818 313.773 243.688 312.688C242.599 311.613 240.32 310.628 236.85 309.732C233.38 308.835 230.841 308.598 229.234 309.02C227.626 309.442 226.62 310.438 226.214 312.008C225.798 313.619 226.165 315.014 227.315 316.192C228.465 317.371 230.795 318.413 234.307 319.32ZM211.107 314.451L213.796 304.041C214.309 302.058 215.092 300.476 216.146 299.294C213.321 297.947 210.857 298.104 208.754 299.764C206.598 301.455 205.051 304.118 204.112 307.753C203.173 311.388 203.303 314.639 204.502 317.504C205.04 318.833 205.706 319.666 206.5 320.003C207.294 320.341 208.119 320.047 208.975 319.122C209.831 318.198 210.542 316.641 211.107 314.451Z" fill="black"/>
</svg>
