<svg width="503" height="278" viewBox="0 0 503 278" fill="none" xmlns="http://www.w3.org/2000/svg">
<path d="M121.569 80.4485L122.27 81.519L107.819 90.9926L107.117 89.9221L109.954 88.0625L95.6821 78.899L97.9222 89.9042L102.46 92.9747L104.441 91.6765L105.143 92.747L91.7615 101.519L91.0597 100.448L93.4148 98.9045L79.143 89.741L82.6564 105.957L86.9384 103.15L87.6401 104.221L78.9156 109.94L78.2139 108.869L81.4253 106.764L75.0325 77.2836L76.1565 76.5467L96.2273 88.7195L91.625 66.4064L92.7491 65.6696L119.053 82.0976L121.569 80.4485Z" fill="black"/>
<path d="M34.5282 125.136L32.8369 127.853L31.7503 127.176L40.2066 113.594L41.2932 114.27L39.602 116.987L54.8146 126.458C57.3863 128.059 59.4522 128.817 61.0124 128.733C62.5726 128.649 63.8262 127.846 64.7733 126.325C66.0587 124.26 65.9981 121.936 64.5915 119.351L45.5214 107.479L43.8301 110.195L42.7435 109.519L51.1998 95.9359L52.2864 96.6124L50.5951 99.329L84.8237 120.639L86.5149 117.922L87.6016 118.599L80.8365 129.465L66.6018 120.603C67.1513 121.9 67.301 123.476 67.051 125.33C66.801 127.185 66.1348 128.982 65.0523 130.72C61.0384 137.168 55.5362 138.215 48.5456 133.863L34.5282 125.136Z" fill="black"/>
<path d="M37.1951 181.136C36.6701 180.839 36.0839 180.16 35.4365 179.1C34.8302 178.028 34.3167 176.731 33.8959 175.209C32.9634 171.837 33.3852 169.441 35.1615 168.02C32.4544 166.555 30.5153 163.705 29.3439 159.469C28.7184 157.208 28.715 155.194 29.3337 153.43C30.0049 151.695 31.3685 150.543 33.4247 149.974C36.18 149.212 38.5935 149.696 40.6653 151.425C42.7782 153.142 44.8823 156.589 46.9775 161.764L47.9683 164.146L50.9908 163.31C54.5686 162.321 56.9003 161.389 57.9862 160.513C59.072 159.637 59.3932 158.397 58.9497 156.793C58.5175 155.231 58.0127 154.286 57.4353 153.958C56.899 153.62 56.36 153.592 55.8184 153.874C55.3179 154.146 54.6551 154.55 53.83 155.088C53.0049 155.626 52.3251 155.969 51.7905 156.117C50.5156 156.47 49.3008 156.319 48.1459 155.664C47.0435 155.039 46.316 154.09 45.9635 152.815C45.6223 151.581 45.7584 150.392 46.3718 149.249C47.0263 148.094 47.991 147.34 49.2658 146.988C51.3631 146.408 53.4476 146.982 55.5194 148.711C57.6437 150.47 59.2972 153.488 60.4799 157.765C61.674 162.083 61.6782 165.379 60.4926 167.655C59.3183 169.972 56.5927 171.722 52.3159 172.904L41.2127 175.975C39.0331 176.578 37.7294 177.226 37.3015 177.92C36.9148 178.602 37.0849 179.618 37.8119 180.966L37.1951 181.136ZM37.0295 158.207C35.5237 158.845 34.4698 159.756 33.8678 160.941C33.3069 162.114 33.197 163.317 33.5382 164.551C33.8907 165.826 34.8146 166.766 36.3099 167.37L46.7963 164.47L45.8737 162.335C45.1039 160.512 43.9578 159.169 42.4354 158.306C40.9244 157.484 39.1224 157.451 37.0295 158.207Z" fill="black"/>
<path d="M72.6225 187.072L59.9123 196.144C56.9258 198.276 55.1893 199.699 54.703 200.413C54.2515 201.102 53.8991 201.747 53.646 202.347C53.1149 203.512 53.3079 204.737 54.2251 206.022C55.167 207.342 55.9976 208.138 56.7167 208.411L55.6748 209.155C53.3043 208.331 51.4125 206.929 49.9996 204.95C47.9174 202.033 47.0255 199.314 47.3239 196.795C47.6223 194.275 49.5599 191.739 53.1369 189.186L67.0452 179.258L64.2937 175.403L65.3355 174.66L68.087 178.514C69.5546 179.983 71.4069 180.889 73.6437 181.232C75.9152 181.55 78.4052 181.109 81.1137 179.91L81.6343 180.639L73.6643 186.328L77.9775 192.37L76.9357 193.114L72.6225 187.072Z" fill="black"/>
<path d="M94.0173 241.55C90.7761 240.351 88.4489 238.034 87.0357 234.599C85.6224 231.165 85.782 227.107 87.5144 222.425C89.2468 217.743 91.7621 214.511 95.0602 212.729C98.3583 210.947 101.668 210.67 104.989 211.899C106.63 212.506 108.045 213.416 109.233 214.63C110.422 215.843 111.085 217.248 111.222 218.846L116.463 204.68L113.462 203.57L113.907 202.369L125.911 206.811L111.474 245.826L114.475 246.937L114.031 248.137L102.027 243.695L103.048 240.934C101.109 242.855 98.0989 243.06 94.0173 241.55ZM106.891 230.55L110.556 220.646C110.275 218.086 109.254 216.48 107.493 215.828C105.773 215.192 103.922 215.644 101.941 217.186C99.9603 218.728 98.1629 221.679 96.549 226.041C94.9498 230.362 94.4203 233.761 94.9605 236.235C95.5006 238.71 96.7228 240.14 98.6272 240.526C99.6868 240.736 100.566 240.698 101.263 240.41C102.838 239.719 104.714 236.432 106.891 230.55Z" fill="black"/>
<path d="M142.31 244.19C143.659 246.09 145.462 246.808 147.719 246.343C149.976 245.879 151.365 244.482 151.888 242.153C152.41 239.823 152.168 236.214 151.161 231.325C150.146 226.393 148.939 222.961 147.539 221.028C146.13 219.052 144.298 218.297 142.041 218.762C139.784 219.226 138.42 220.64 137.948 223.002C137.467 225.322 137.735 228.948 138.75 233.88C139.765 238.811 140.951 242.248 142.31 244.19ZM147.852 247.623C143.882 248.44 140.021 247.884 136.27 245.956C132.518 244.027 130.152 240.681 129.172 235.917C128.647 233.368 128.638 230.995 129.144 228.8C129.692 226.596 130.619 224.75 131.925 223.262C133.272 221.765 134.784 220.539 136.46 219.584C138.128 218.587 139.902 217.895 141.783 217.508C143.663 217.121 145.567 217.056 147.493 217.313C149.452 217.519 151.325 218.048 153.112 218.9C154.941 219.743 156.543 221.069 157.917 222.877C159.291 224.685 160.236 226.843 160.752 229.35C161.268 231.858 161.248 234.192 160.691 236.354C160.134 238.516 159.182 240.346 157.835 241.843C155.15 244.879 151.822 246.805 147.852 247.623Z" fill="black"/>
<path d="M193.872 211.662L177.722 222.281C182.204 228.321 186.709 229.853 191.236 226.876C192.448 226.079 193.633 224.891 194.791 223.313C195.985 221.711 196.598 220.159 196.632 218.656L197.732 218.699C197.815 220.533 197.193 222.5 195.866 224.598C194.539 226.696 192.931 228.366 191.041 229.608C189.187 230.827 187.395 231.751 185.663 232.379C183.908 232.971 182.024 233.29 180.012 233.337C178 233.383 175.998 232.784 174.006 231.541C172.05 230.274 170.239 228.375 168.575 225.844C165.739 221.53 164.835 217.554 165.864 213.916C166.87 210.242 169.066 207.291 172.453 205.065C175.876 202.814 179.46 202.092 183.206 202.897C186.988 203.678 190.543 206.6 193.872 211.662ZM176.965 221.247L185.682 215.515C183.525 212.236 181.282 209.6 178.951 207.609C176.657 205.594 174.743 205.091 173.21 206.099C171.677 207.107 171.357 209.028 172.25 211.862C173.12 214.66 174.562 217.592 176.578 220.658L176.965 221.247Z" fill="black"/>
<path d="M220.232 203.979C223.355 200.827 224.054 198.396 222.327 196.684C221.357 195.722 220.028 195.487 218.341 195.977C216.623 196.437 214.802 197.245 212.876 198.4C210.95 199.554 208.978 200.634 206.961 201.639C204.975 202.613 202.925 203.044 200.812 202.933C198.73 202.791 196.87 201.728 195.232 199.744C193.594 197.76 193.01 195.349 193.481 192.511C193.981 189.643 195.448 186.981 197.881 184.527C200.344 182.042 202.72 180.433 205.01 179.698C207.299 178.964 209.201 179.167 210.715 180.307C211.653 180.997 212.275 181.884 212.582 182.969C212.918 184.023 212.666 185.005 211.825 185.914C211.015 186.792 210.081 187.279 209.026 187.374C208 187.439 207.184 187.141 206.578 186.48C205.972 185.819 205.652 185.021 205.617 184.085C205.553 183.12 205.369 182.488 205.066 182.187C204.551 181.677 203.676 181.801 202.443 182.561C201.209 183.26 199.946 184.261 198.654 185.564C197.393 186.837 196.645 188.168 196.409 189.557C196.174 190.945 196.481 192.06 197.329 192.901C198.177 193.742 199.4 193.963 200.998 193.564C202.625 193.135 204.356 192.388 206.192 191.324C207.998 190.23 209.849 189.211 211.745 188.267C213.641 187.263 215.6 186.772 217.622 186.793C219.673 186.784 221.487 187.561 223.063 189.123C225.154 191.195 226.099 193.605 225.9 196.351C225.671 199.067 224.069 201.926 221.096 204.925C218.122 207.925 215.249 209.914 212.478 210.892C209.737 211.839 207.564 211.698 205.959 210.468C205.021 209.778 204.399 208.891 204.092 207.806C203.786 206.721 204.038 205.74 204.849 204.861C205.659 203.983 206.578 203.511 207.603 203.446C208.659 203.351 209.489 203.634 210.096 204.295C210.702 204.956 211.038 205.769 211.102 206.734C211.136 207.669 211.305 208.287 211.608 208.588C212.214 209.188 213.405 208.987 215.181 207.984C216.956 206.92 218.64 205.585 220.232 203.979Z" fill="black"/>
<path d="M256.001 158.75L257.825 156.121L258.877 156.85L249.755 169.995L248.703 169.266L250.528 166.637L228.444 151.312L226.985 153.415L225.933 152.686L232.865 142.695L256.001 158.75ZM226.253 137.406C227.515 138.282 228.286 139.491 228.564 141.035C228.833 142.52 228.517 143.91 227.617 145.207C226.741 146.469 225.549 147.252 224.04 147.555C222.496 147.834 221.093 147.536 219.831 146.66C218.534 145.76 217.747 144.538 217.468 142.994C217.189 141.45 217.487 140.048 218.363 138.786C219.263 137.489 220.472 136.718 221.992 136.474C223.536 136.195 224.956 136.506 226.253 137.406Z" fill="black"/>
<path d="M247.252 125.247L259.65 134.742C262.563 136.973 264.432 138.217 265.257 138.472C266.048 138.702 266.768 138.85 267.416 138.917C268.686 139.083 269.801 138.54 270.761 137.286C271.746 135.999 272.265 134.972 272.315 134.204L273.331 134.983C273.238 137.491 272.451 139.71 270.972 141.641C268.793 144.486 266.455 146.135 263.959 146.588C261.462 147.04 258.47 145.931 254.981 143.258L241.415 132.868L238.535 136.628L237.519 135.849L240.399 132.09C241.373 130.256 241.697 128.22 241.369 125.981C241.008 123.716 239.858 121.464 237.917 119.225L238.462 118.514L246.236 124.468L250.75 118.574L251.766 119.353L247.252 125.247Z" fill="black"/>
<path d="M298.981 106.545L301.221 104.261L302.135 105.157L290.932 116.58L290.018 115.683L292.258 113.399L263.473 85.1654L261.233 87.4499L260.319 86.5536L269.282 77.4155L298.981 106.545Z" fill="black"/>
<path d="M311.627 91.271C313.678 92.377 315.613 92.222 317.43 90.806C319.248 89.39 319.875 87.5222 319.312 85.2025C318.749 82.8829 316.933 79.7541 313.865 75.8161C310.771 71.8445 308.168 69.302 306.057 68.1885C303.919 67.0415 301.941 67.1759 300.124 68.5919C298.306 70.0079 297.709 71.8794 298.332 74.2065C298.929 76.5 300.774 79.6325 303.869 83.6041C306.963 87.5757 309.549 90.1313 311.627 91.271ZM318.116 91.8944C314.919 94.3855 311.211 95.5972 306.994 95.5296C302.776 95.4619 299.173 93.5096 296.184 89.6726C294.584 87.6195 293.525 85.4967 293.007 83.3042C292.522 81.0855 292.536 79.0199 293.047 77.1072C293.592 75.1684 294.404 73.3996 295.484 71.8008C296.538 70.1684 297.822 68.7622 299.337 67.5822C300.852 66.4022 302.529 65.5008 304.37 64.8781C306.218 64.1956 308.132 63.8404 310.111 63.8126C312.125 63.7586 314.148 64.2378 316.18 65.2502C318.213 66.2627 320.016 67.7787 321.589 69.7981C323.163 71.8176 324.179 73.9198 324.637 76.1048C325.095 78.2899 325.052 80.3518 324.507 82.2907C323.444 86.202 321.314 89.4033 318.116 91.8944Z" fill="black"/>
<path d="M342.059 70.8665C343.724 72.4974 345.626 72.8843 347.765 72.027C349.903 71.1698 351.023 69.5488 351.125 67.1639C351.226 64.779 350.348 61.2697 348.491 56.6361C346.617 51.9629 344.821 48.7989 343.1 47.1442C341.364 45.45 339.426 45.0314 337.288 45.8887C335.149 46.7459 334.057 48.3788 334.011 50.7874C333.949 53.1564 334.855 56.6776 336.728 61.3508C338.601 66.024 340.378 69.1959 342.059 70.8665ZM348.122 73.2628C344.36 74.7708 340.462 74.9083 336.428 73.6752C332.394 72.4421 329.473 69.5682 327.663 65.0534C326.695 62.6376 326.265 60.3045 326.374 58.0543C326.523 55.7882 327.108 53.8071 328.129 52.1108C329.19 50.3987 330.46 48.9241 331.941 47.6871C333.406 46.4104 335.029 45.4149 336.811 44.7005C338.594 43.9862 340.455 43.5847 342.396 43.4962C344.361 43.3522 346.298 43.5409 348.208 44.0625C350.158 44.5682 351.969 45.5889 353.642 47.1248C355.314 48.6607 356.627 50.6167 357.58 52.9929C358.532 55.3691 358.926 57.6705 358.761 59.897C358.596 62.1234 357.984 64.0927 356.923 65.8049C354.818 69.2687 351.885 71.7547 348.122 73.2628Z" fill="black"/>
<path d="M398.461 67.2375L398.331 68.511C392.559 67.9239 388.588 67.1128 386.421 66.0775C384.3 65.0041 382.325 62.7019 380.497 59.1708L377.114 52.5868L376.208 53.2667L375.03 64.8549L378.213 65.1787L378.084 66.4521L362.166 64.8335L362.295 63.56L365.479 63.8838L369.558 23.7706L366.374 23.4469L366.504 22.1735L379.238 23.4683L376.402 51.3565L391.056 39.466L385.899 38.9416L386.028 37.6681L398.126 38.8983L397.997 40.1717L392.967 39.6602L384.555 46.4602L391.031 58.6981C393.947 64.1839 396.423 67.0303 398.461 67.2375Z" fill="black"/>
<path d="M421.977 85.7934L424.373 87.9147L423.524 88.873L411.545 78.2668L412.393 77.3084L414.789 79.4297L441.517 49.2414L439.121 47.1201L439.969 46.1618L449.553 54.6467L421.977 85.7934Z" fill="black"/>
<path d="M430.478 100.297L431.787 103.217L430.619 103.741L424.075 89.14L425.243 88.6165L426.551 91.5366L451.08 80.5425L450.033 78.2064L451.201 77.6828L456.175 88.7792L430.478 100.297ZM464.119 85.8495C462.718 86.4778 461.284 86.5126 459.818 85.954C458.408 85.4169 457.381 84.4281 456.735 82.9875C456.107 81.5859 456.052 80.1608 456.572 78.7122C457.131 77.2462 458.111 76.199 459.512 75.5708C460.953 74.9251 462.406 74.8816 463.872 75.4401C465.338 75.9987 466.385 76.9788 467.014 78.3805C467.659 79.821 467.694 81.2549 467.118 82.682C466.56 84.148 465.56 85.2039 464.119 85.8495Z" fill="black"/>
<path d="M440.075 142.496L438.811 142.702C437.88 136.974 437.633 132.929 438.07 130.567C438.556 128.24 440.267 125.736 443.203 123.054L448.683 118.078L447.792 117.38L436.295 119.249L436.808 122.408L435.545 122.613L432.977 106.821L434.241 106.615L434.754 109.774L474.552 103.303L474.038 100.145L475.301 99.9392L477.356 112.573L449.687 117.072L464.973 128.138L464.141 123.021L465.404 122.816L467.356 134.818L466.093 135.024L465.281 130.033L456.531 123.675L446.393 133.104C441.852 137.344 439.746 140.475 440.075 142.496Z" fill="black"/>
<path d="M446.271 173.154L449.999 154.188C442.548 153.159 438.3 155.302 437.255 160.619C436.976 162.043 436.994 163.72 437.31 165.652C437.617 167.626 438.296 169.151 439.346 170.227L438.545 170.983C437.177 169.757 436.208 167.936 435.64 165.52C435.071 163.103 435.005 160.786 435.441 158.567C435.869 156.39 436.465 154.463 437.229 152.787C438.036 151.119 439.127 149.551 440.502 148.082C441.878 146.613 443.707 145.603 445.99 145.052C448.264 144.542 450.888 144.579 453.86 145.164C458.926 146.159 462.397 148.298 464.274 151.581C466.193 154.871 466.761 158.505 465.979 162.482C465.189 166.501 463.195 169.566 459.998 171.677C456.791 173.83 452.216 174.322 446.271 173.154ZM451.267 154.372L449.255 164.609C453.107 165.366 456.559 165.609 459.613 165.34C462.658 165.112 464.357 164.098 464.711 162.298C465.065 160.498 463.917 158.924 461.269 157.578C458.662 156.239 455.558 155.216 451.958 154.508L451.267 154.372Z" fill="black"/>
<path d="M454.274 203.171C450.421 207.161 446.699 209.172 443.109 209.204C441.056 209.179 439.368 208.409 438.045 206.893C436.751 205.407 436.045 203.835 435.926 202.178C435.837 200.55 436.082 199.007 436.66 197.548C437.239 196.15 437.819 194.782 438.399 193.444C439.673 190.344 439.151 188.09 436.834 186.682L437.589 185.9C440.562 185.033 442.819 185.552 444.36 187.457C445.039 188.29 445.404 189.325 445.455 190.561C445.538 191.827 445.452 192.99 445.199 194.05C444.946 195.111 444.815 196.23 444.805 197.407C444.796 198.644 445.04 199.651 445.536 200.426C446.776 202.336 448.165 203.232 449.702 203.115C451.269 203.028 452.601 202.416 453.698 201.28C454.795 200.145 455.632 198.848 456.21 197.39C456.789 195.931 456.878 195.009 456.479 194.624C456.111 194.268 455.641 194.11 455.068 194.151C454.526 194.22 454 194.365 453.491 194.585C452.982 194.805 452.365 194.861 451.639 194.753C450.912 194.645 450.196 194.25 449.491 193.569C448.815 192.916 448.483 192.032 448.494 190.915C448.505 189.799 448.925 188.811 449.755 187.951C450.585 187.092 451.679 186.666 453.037 186.672C454.365 186.71 455.551 187.232 456.595 188.24C458.344 189.93 459.032 192.166 458.657 194.948C458.284 197.791 456.823 200.532 454.274 203.171ZM427.113 176.848C428.239 175.682 429.617 175.085 431.246 175.057C432.874 175.028 434.272 175.577 435.438 176.704C436.635 177.86 437.248 179.252 437.276 180.881C437.304 182.51 436.755 183.908 435.629 185.074C434.473 186.271 433.08 186.883 431.451 186.912C429.822 186.94 428.41 186.376 427.213 185.22C426.046 184.094 425.449 182.716 425.421 181.087C425.393 179.458 425.957 178.045 427.113 176.848Z" fill="black"/>
</svg>
