<svg width="390" height="140" viewBox="0 0 390 140" fill="none" xmlns="http://www.w3.org/2000/svg">
<path d="M27.4248 67.784L30.1977 69.3812L29.5588 70.4904L15.6943 62.5045L16.3331 61.3953L19.106 62.9925L32.5223 39.7001L30.304 38.4223L30.9429 37.3132L41.4799 43.3824L27.4248 67.784ZM46.1956 36.3494C45.4289 37.6804 44.2881 38.5497 42.7732 38.9573C41.3165 39.3492 39.9041 39.1512 38.5362 38.3633C37.2052 37.5966 36.3252 36.4743 35.8963 34.9963C35.4888 33.4814 35.6683 32.0584 36.4349 30.7274C37.2229 29.3594 38.3743 28.4716 39.8893 28.064C41.4043 27.6565 42.8272 27.836 44.1582 28.6026C45.5262 29.3906 46.3955 30.5314 46.7661 32.025C47.1737 33.54 46.9835 34.9815 46.1956 36.3494Z" fill="black"/>
<path d="M60.3889 54.9436L53.8566 69.1276C52.3216 72.4605 51.5203 74.5576 51.4524 75.4188C51.4024 76.2413 51.4164 76.9759 51.4945 77.6225C51.6117 78.8978 52.3873 79.8657 53.8212 80.5261C55.2939 81.2043 56.4101 81.4835 57.1699 81.3637L56.6345 82.5263C54.1674 82.9872 51.8294 82.709 49.6204 81.6917C46.3651 80.1925 44.2417 78.2751 43.2505 75.9396C42.2592 73.6041 42.6828 70.4405 44.5211 66.4489L51.6692 50.9278L47.3675 48.9466L47.903 47.784L52.2047 49.7651C54.2077 50.3118 56.2652 50.179 58.3774 49.3667C60.5073 48.5157 62.4504 46.8975 64.2067 44.512L65.0205 44.8868L60.9244 53.781L67.6676 56.8865L67.1322 58.0491L60.3889 54.9436Z" fill="black"/>
<path d="M81.1424 55.2577L78.793 54.7728C77.7565 54.3775 76.9488 53.6814 76.3701 52.6844C75.8464 51.6627 75.8354 50.4941 76.3371 49.1785C76.854 47.8231 77.7258 46.8541 78.9525 46.2716C80.1792 45.6892 81.57 45.6944 83.1248 46.2873C84.7194 46.8954 85.787 47.9875 86.3276 49.5635C86.9081 51.1548 86.8334 52.9072 86.1037 54.8208C85.3892 56.6945 83.9371 58.287 81.7476 59.5982C79.5978 60.9246 76.9319 61.6889 73.7497 61.891L73.7188 60.7147C78.2567 60.0707 80.9286 58.6923 81.7343 56.5794C81.9776 55.9415 81.7803 55.501 81.1424 55.2577Z" fill="black"/>
<path d="M91.7928 96.9271C96.0686 98.1135 98.5316 97.5351 99.1819 95.1916C99.547 93.876 99.1036 92.6017 97.8517 91.3687C96.6112 90.0946 95.0167 88.8995 93.0682 87.7831C91.1198 86.6668 89.2147 85.474 87.353 84.2047C85.5324 82.9467 84.1548 81.3689 83.2202 79.4712C82.3267 77.585 82.3455 75.4427 83.2767 73.0444C84.2079 70.646 86.0266 68.9589 88.7327 67.9829C91.48 67.0184 94.5187 66.9982 97.8489 67.9223C101.22 68.8578 103.785 70.1452 105.544 71.7846C107.303 73.4239 108.055 75.1823 107.8 77.0598C107.656 78.2155 107.186 79.1919 106.389 79.9892C105.634 80.7979 104.654 81.0574 103.45 80.7677C102.288 80.4894 101.407 79.9129 100.808 79.0383C100.251 78.1752 100.112 77.3176 100.393 76.4656C100.674 75.6137 101.214 74.9444 102.013 74.4577C102.824 73.9299 103.286 73.4604 103.4 73.0493C103.594 72.3504 103.058 71.6482 101.793 70.9428C100.58 70.2077 99.0895 69.5949 97.3216 69.1043C95.5948 68.6252 94.0681 68.6221 92.7412 69.0953C91.4144 69.5684 90.5913 70.3805 90.2719 71.5317C89.9524 72.6829 90.357 73.8578 91.4856 75.0566C92.6552 76.2667 94.1526 77.4128 95.9777 78.4949C97.8143 79.5359 99.6074 80.6534 101.357 81.8474C103.16 83.0117 104.545 84.481 105.514 86.2553C106.524 88.0411 106.732 90.0029 106.139 92.1408C105.352 94.9776 103.711 96.9798 101.218 98.1476C98.7354 99.2742 95.4591 99.2728 91.3889 98.1433C87.3187 97.0139 84.1802 95.4788 81.9735 93.5381C79.8078 91.6088 78.8698 89.6437 79.1593 87.643C79.3029 86.4873 79.7731 85.5108 80.57 84.7135C81.3668 83.9162 82.3465 83.6567 83.5091 83.935C84.6717 84.2134 85.5317 84.7841 86.0892 85.6473C86.6879 86.5219 86.8468 87.3851 86.5661 88.2371C86.2854 89.0891 85.7398 89.7789 84.9291 90.3067C84.1299 90.7934 83.6732 91.2423 83.5591 91.6535C83.331 92.4757 84.0883 93.4165 85.8312 94.4757C87.6266 95.5053 89.6138 96.3224 91.7928 96.9271Z" fill="black"/>
<path d="M146.402 93.7696L145.621 104.301C146.6 106.684 148.004 107.943 149.833 108.078C151.706 108.217 153.38 107.272 154.857 105.242C156.334 103.212 157.246 99.8573 157.593 95.1768C157.943 90.4538 157.677 87.1183 156.794 85.1704C155.915 83.1799 154.433 82.1074 152.348 81.9529C150.263 81.7983 148.838 82.5484 148.074 84.2031C147.309 85.8577 146.752 89.0466 146.402 93.7696ZM147.22 82.7279C148.85 80.3673 151.537 79.3258 155.282 79.6033C159.026 79.8809 162.052 81.4744 164.361 84.3837C166.67 87.293 167.639 91.2368 167.27 96.2151C166.901 101.193 165.379 104.995 162.703 107.621C160.026 110.246 156.923 111.428 153.391 111.166C151.646 111.037 150.035 110.554 148.557 109.717C147.079 108.88 146.053 107.713 145.479 106.215L144.363 121.278L147.554 121.515L147.459 122.791L134.694 121.845L137.77 80.3588L134.579 80.1222L134.673 78.8457L147.438 79.792L147.22 82.7279Z" fill="black"/>
<path d="M204.529 97.8899L185.224 98.834C186.017 106.314 189.119 109.921 194.532 109.656C195.981 109.585 197.605 109.164 199.404 108.393C201.246 107.619 202.562 106.594 203.354 105.316L204.28 105.912C203.42 107.534 201.885 108.912 199.677 110.045C197.468 111.179 195.235 111.8 192.976 111.911C190.76 112.019 188.747 111.904 186.936 111.566C185.123 111.184 183.338 110.503 181.582 109.521C179.825 108.539 178.404 107.006 177.32 104.923C176.278 102.838 175.683 100.283 175.535 97.2574C175.283 92.1009 176.524 88.2169 179.259 85.6056C181.991 82.9516 185.381 81.5256 189.43 81.3277C193.521 81.1276 196.976 82.3256 199.794 84.9217C202.655 87.5157 204.233 91.8385 204.529 97.8899ZM185.097 97.5586L195.517 97.0491C195.325 93.1284 194.731 89.7187 193.735 86.8199C192.782 83.919 191.389 82.5134 189.556 82.603C187.724 82.6926 186.473 84.1849 185.802 87.0797C185.13 89.9319 184.884 93.1905 185.063 96.8555L185.097 97.5586Z" fill="black"/>
<path d="M233.886 107.772L218.101 110.385L217.892 109.122L221.049 108.599L216.659 82.0802L213.502 82.6028L213.293 81.34L225.921 79.2495L227.165 86.7632C227.202 84.6379 227.597 82.8427 228.349 81.3775C229.143 79.9054 230.095 78.8613 231.204 78.2452C232.355 77.6222 233.478 77.2201 234.572 77.0389C235.709 76.8508 236.817 76.8836 237.897 77.1373C239.012 77.3419 239.923 78.0128 240.63 79.1499C241.331 80.2449 241.55 81.4411 241.289 82.7384C241.021 83.9937 240.34 84.9715 239.245 85.6717C238.192 86.365 237.15 86.6023 236.119 86.3838C235.088 86.1652 234.31 85.775 233.785 85.2133C233.252 84.6095 232.853 84.0269 232.587 83.4654C231.908 81.9776 231.211 81.293 230.496 81.4114C229.696 81.5438 229.042 83.0793 228.534 86.0177C228.018 88.9141 228.015 91.8987 228.524 94.9715L230.52 107.031L233.677 106.509L233.886 107.772Z" fill="black"/>
<path d="M269.442 100.585L253.993 104.744L253.66 103.508L256.75 102.677L249.762 76.7207L246.054 77.719L245.721 76.483L249.429 75.4847C246.989 66.4208 249.848 60.7907 258.005 58.5945C260.889 57.8181 263.26 57.8427 265.117 58.6683C266.963 59.4527 268.102 60.6483 268.535 62.255C268.801 63.2438 268.682 64.1154 268.178 64.8696C267.704 65.5716 267.035 66.0391 266.17 66.272C263.945 66.8709 262.478 65.852 261.768 63.2153C261.047 60.5373 259.904 59.409 258.338 59.8305C257.184 60.1411 256.673 61.3612 256.805 63.4909C256.925 65.5794 257.557 68.7455 258.699 72.989L266.733 70.8261L267.066 72.0621L259.032 74.225L266.02 100.181L269.11 99.349L269.442 100.585Z" fill="black"/>
<path d="M307.875 74.4974L289.865 81.5118C292.988 88.3544 297.074 90.7923 302.123 88.8258C303.475 88.2993 304.881 87.3851 306.343 86.0832C307.845 84.7657 308.769 83.3757 309.115 81.913L310.182 82.1842C309.88 83.9959 308.862 85.7892 307.126 87.564C305.391 89.3389 303.469 90.6367 301.362 91.4574C299.295 92.2625 297.349 92.7915 295.524 93.0443C293.684 93.2573 291.775 93.1765 289.798 92.802C287.82 92.4274 285.987 91.4243 284.298 89.7925C282.65 88.1453 281.275 85.9103 280.176 83.0875C278.302 78.2768 278.248 74.1998 280.014 70.8563C281.764 67.4732 284.528 65.0461 288.305 63.5751C292.122 62.0885 295.778 62.1298 299.274 63.6987C302.809 65.2522 305.676 68.8518 307.875 74.4974ZM289.341 80.3423L299.061 76.5564C297.637 72.8987 295.993 69.853 294.129 67.4194C292.305 64.9704 290.539 64.0787 288.829 64.7446C287.119 65.4104 286.406 67.2223 286.688 70.1803C286.954 73.0985 287.753 76.2672 289.085 79.6863L289.341 80.3423Z" fill="black"/>
<path d="M316.618 69.5944C314.269 65.141 313.79 61.0766 315.18 57.4012C316.57 53.7257 319.265 50.8332 323.266 48.7237C327.304 46.5942 330.842 46.031 333.879 47.0341C336.897 47.9994 338.689 49.707 339.258 52.1567C339.573 53.4859 339.389 54.6923 338.706 55.7759C338.041 56.8018 337.073 57.4812 335.801 57.814C333.125 58.5017 331.21 57.7511 330.056 55.5621C329.757 54.996 329.366 54.117 328.882 52.9251C328.416 51.6755 328.025 50.7965 327.709 50.288C327.392 49.7796 327.06 49.4241 326.712 49.2217C325.996 48.7791 324.98 49.0015 323.663 49.8888C320.545 52.2084 321.046 57.2743 325.166 65.0866C329.266 72.8612 334.089 75.2857 339.637 72.3602C340.92 71.6835 342.043 70.6572 343.006 69.2813C343.969 67.9054 344.522 66.5766 344.666 65.2947L345.757 65.4429C345.646 67.3348 344.95 69.1725 343.672 70.956C342.394 72.7395 340.679 74.1985 338.528 75.3329C328.677 80.5272 321.374 78.6144 316.618 69.5944Z" fill="black"/>
<path d="M351.055 35.3278L359.553 48.4293C361.549 51.5078 362.894 53.3058 363.585 53.8234C364.254 54.3052 364.882 54.686 365.47 54.9656C366.611 55.548 367.843 55.4097 369.168 54.5506C370.528 53.6684 371.361 52.8741 371.665 52.1679L372.362 53.2418C371.433 55.5733 369.949 57.4008 367.908 58.7242C364.901 60.6745 362.146 61.4445 359.642 61.0342C357.138 60.6239 354.691 58.5753 352.299 54.8883L343.001 40.5518L339.027 43.129L338.331 42.0551L342.304 39.4779C343.837 38.0771 344.824 36.267 345.266 34.0477C345.685 31.7926 345.356 29.2854 344.278 26.5262L345.03 26.0387L350.358 34.2539L356.587 30.214L357.283 31.2879L351.055 35.3278Z" fill="black"/>
</svg>
