<svg width="634" height="61" viewBox="0 0 634 61" fill="none" xmlns="http://www.w3.org/2000/svg">
<path d="M13.36 44.72H16.56V46H0.56V44.72H3.76V17.84H1.2V16.56H13.36V44.72ZM13.936 8.112C13.936 9.648 13.3813 10.9707 12.272 12.08C11.2053 13.1467 9.88267 13.68 8.304 13.68C6.768 13.68 5.44533 13.1467 4.336 12.08C3.22667 10.9707 2.672 9.648 2.672 8.112C2.672 6.53333 3.22667 5.18933 4.336 4.08C5.44533 2.97066 6.768 2.416 8.304 2.416C9.88267 2.416 11.2053 2.97066 12.272 4.08C13.3813 5.18933 13.936 6.53333 13.936 8.112ZM40.57 31.28C40.57 26.2453 42.042 22.4267 44.986 19.824C47.93 17.2213 51.6633 15.92 56.186 15.92C60.7513 15.92 64.1433 17.072 66.362 19.376C68.5807 21.6373 69.37 23.984 68.73 26.416C68.3887 27.7387 67.6633 28.72 66.554 29.36C65.4873 29.9573 64.314 30.1067 63.034 29.808C60.346 29.168 59.002 27.6107 59.002 25.136C59.002 24.496 59.066 23.536 59.194 22.256C59.3647 20.9333 59.4287 19.9733 59.386 19.376C59.3433 18.7787 59.2153 18.3093 59.002 17.968C58.5753 17.2427 57.5727 16.9653 55.994 17.136C52.154 17.7333 50.234 22.448 50.234 31.28C50.234 40.0693 53.37 44.464 59.642 44.464C61.0927 44.464 62.5647 44.08 64.058 43.312C65.5513 42.544 66.6607 41.6267 67.386 40.56L68.282 41.2C67.3007 42.8213 65.8287 44.1227 63.866 45.104C61.9033 46.0853 59.706 46.576 57.274 46.576C46.138 46.576 40.57 41.4773 40.57 31.28ZM107.638 44.72C107.211 45.1467 106.4 45.5307 105.205 45.872C104.011 46.1707 102.624 46.32 101.045 46.32C97.5468 46.32 95.3495 45.2747 94.4535 43.184C92.3202 45.4027 89.0562 46.512 84.6615 46.512C82.3148 46.512 80.3735 45.9787 78.8375 44.912C77.3442 43.8027 76.5975 42.1813 76.5975 40.048C76.5975 37.1893 77.7068 34.992 79.9255 33.456C82.1442 31.8773 86.0268 30.768 91.5735 30.128L94.1335 29.808V26.672C94.1335 22.96 93.8562 20.464 93.3015 19.184C92.7468 17.904 91.6375 17.264 89.9735 17.264C88.3522 17.264 87.3068 17.4987 86.8375 17.968C86.3682 18.3947 86.1975 18.9067 86.3255 19.504C86.4535 20.0587 86.6668 20.8053 86.9655 21.744C87.2642 22.6827 87.4135 23.4293 87.4135 23.984C87.4135 25.3067 86.9442 26.4373 86.0055 27.376C85.1095 28.272 84.0002 28.72 82.6775 28.72C81.3975 28.72 80.2882 28.272 79.3495 27.376C78.4108 26.4373 77.9415 25.3067 77.9415 23.984C77.9415 21.808 79.0508 19.952 81.2695 18.416C83.5308 16.8373 86.8802 16.048 91.3175 16.048C95.7975 16.048 98.9762 16.9227 100.854 18.672C102.773 20.4213 103.733 23.5147 103.733 27.952V39.472C103.733 41.7333 104.011 43.1627 104.566 43.76C105.12 44.3147 106.144 44.4213 107.638 44.08V44.72ZM85.4935 38.768C85.7068 40.3893 86.3042 41.648 87.2855 42.544C88.2668 43.3973 89.3975 43.824 90.6775 43.824C92.0002 43.824 93.1522 43.184 94.1335 41.904V31.024L91.8295 31.344C89.8668 31.6 88.2668 32.3467 87.0295 33.584C85.8348 34.8213 85.3228 36.5493 85.4935 38.768ZM148.273 44.72H151.473V46H135.473V44.72H138.673V26.8C138.673 23.7707 138.225 21.616 137.329 20.336C136.433 19.056 135.089 18.416 133.297 18.416C130.865 18.416 128.923 19.696 127.473 22.256V44.72H130.673V46H114.673V44.72H117.873V17.84H114.673V16.56H127.473V19.888C128.283 18.7787 129.542 17.84 131.249 17.072C132.998 16.2613 134.875 15.856 136.881 15.856C144.475 15.856 148.273 19.9733 148.273 28.208V44.72ZM163.859 9.776L161.491 10.16C160.381 10.16 159.379 9.79733 158.483 9.072C157.629 8.304 157.203 7.216 157.203 5.808C157.203 4.35733 157.672 3.14133 158.611 2.16C159.549 1.17867 160.851 0.688 162.515 0.688C164.221 0.688 165.608 1.328 166.675 2.608C167.784 3.888 168.339 5.552 168.339 7.6C168.339 9.60533 167.549 11.6107 165.97 13.616C164.435 15.6213 162.216 17.2853 159.315 18.608L158.867 17.52C162.877 15.3013 164.883 13.0613 164.883 10.8C164.883 10.1173 164.541 9.776 163.859 9.776ZM186.786 17.84V33.456C186.786 37.1253 186.935 39.3653 187.234 40.176C187.533 40.944 187.853 41.6053 188.194 42.16C188.834 43.2693 189.943 43.824 191.522 43.824C193.143 43.824 194.274 43.6107 194.914 43.184V44.464C192.866 45.9147 190.626 46.64 188.194 46.64C184.61 46.64 181.879 45.7867 180.002 44.08C178.125 42.3733 177.186 39.3227 177.186 34.928V17.84H172.45V16.56H177.186C179.234 16.2187 181.047 15.2373 182.626 13.616C184.205 11.952 185.293 9.66933 185.89 6.768H186.786V16.56H194.21V17.84H186.786ZM232.685 45.488C237.122 45.488 239.341 44.272 239.341 41.84C239.341 40.4747 238.573 39.3653 237.037 38.512C235.501 37.616 233.645 36.8907 231.469 36.336C229.293 35.7813 227.138 35.1413 225.005 34.416C222.914 33.6907 221.165 32.5387 219.757 30.96C218.392 29.3813 217.837 27.312 218.093 24.752C218.349 22.192 219.65 20.08 221.997 18.416C224.386 16.752 227.309 15.92 230.765 15.92C234.264 15.92 237.08 16.4747 239.213 17.584C241.346 18.6933 242.541 20.1867 242.797 22.064C242.968 23.216 242.776 24.2827 242.221 25.264C241.709 26.2453 240.834 26.7573 239.597 26.8C238.402 26.8427 237.4 26.5227 236.589 25.84C235.821 25.1573 235.458 24.368 235.501 23.472C235.544 22.576 235.885 21.7867 236.525 21.104C237.165 20.3787 237.485 19.8027 237.485 19.376C237.485 18.6507 236.781 18.1173 235.373 17.776C234.008 17.392 232.408 17.2 230.573 17.2C228.781 17.2 227.309 17.6053 226.157 18.416C225.005 19.2267 224.429 20.2293 224.429 21.424C224.429 22.6187 225.133 23.6427 226.541 24.496C227.992 25.3493 229.741 26.0533 231.789 26.608C233.837 27.12 235.864 27.7173 237.869 28.4C239.917 29.04 241.645 30.0853 243.053 31.536C244.504 32.9867 245.229 34.8213 245.229 37.04C245.229 39.984 244.184 42.352 242.093 44.144C240.002 45.8933 236.845 46.768 232.621 46.768C228.397 46.768 224.962 46.128 222.317 44.848C219.714 43.568 218.285 41.9253 218.029 39.92C217.858 38.768 218.05 37.7013 218.605 36.72C219.16 35.7387 220.034 35.2267 221.229 35.184C222.424 35.1413 223.405 35.4613 224.173 36.144C224.984 36.8267 225.368 37.616 225.325 38.512C225.282 39.408 224.941 40.2187 224.301 40.944C223.661 41.6267 223.341 42.1813 223.341 42.608C223.341 43.4613 224.322 44.1653 226.285 44.72C228.29 45.232 230.424 45.488 232.685 45.488ZM280.148 33.2H260.82C261.247 40.7093 264.169 44.464 269.588 44.464C271.039 44.464 272.681 44.1227 274.516 43.44C276.393 42.7573 277.759 41.7973 278.612 40.56L279.508 41.2C278.569 42.7787 276.969 44.08 274.708 45.104C272.447 46.128 270.185 46.64 267.924 46.64C265.705 46.64 263.7 46.4267 261.908 46C260.116 45.5307 258.367 44.7627 256.66 43.696C254.953 42.6293 253.609 41.0293 252.628 38.896C251.689 36.7627 251.22 34.1813 251.22 31.152C251.22 25.9893 252.649 22.1707 255.508 19.696C258.367 17.1787 261.823 15.92 265.876 15.92C269.972 15.92 273.364 17.2853 276.052 20.016C278.783 22.7467 280.148 27.1413 280.148 33.2ZM260.756 31.92H271.188C271.188 27.9947 270.761 24.56 269.908 21.616C269.097 18.672 267.775 17.2 265.94 17.2C264.105 17.2 262.783 18.6293 261.972 21.488C261.161 24.304 260.756 27.5467 260.756 31.216V31.92ZM316.286 33.2H296.958C297.384 40.7093 300.307 44.464 305.726 44.464C307.176 44.464 308.819 44.1227 310.654 43.44C312.531 42.7573 313.896 41.7973 314.75 40.56L315.646 41.2C314.707 42.7787 313.107 44.08 310.846 45.104C308.584 46.128 306.323 46.64 304.062 46.64C301.843 46.64 299.838 46.4267 298.046 46C296.254 45.5307 294.504 44.7627 292.798 43.696C291.091 42.6293 289.747 41.0293 288.766 38.896C287.827 36.7627 287.358 34.1813 287.358 31.152C287.358 25.9893 288.787 22.1707 291.646 19.696C294.504 17.1787 297.96 15.92 302.014 15.92C306.11 15.92 309.502 17.2853 312.19 20.016C314.92 22.7467 316.286 27.1413 316.286 33.2ZM296.894 31.92H307.326C307.326 27.9947 306.899 24.56 306.046 21.616C305.235 18.672 303.912 17.2 302.078 17.2C300.243 17.2 298.92 18.6293 298.11 21.488C297.299 24.304 296.894 27.5467 296.894 31.216V31.92ZM372.125 44.72C371.698 45.1467 370.888 45.5307 369.693 45.872C368.498 46.1707 367.112 46.32 365.533 46.32C362.034 46.32 359.837 45.2747 358.941 43.184C356.808 45.4027 353.544 46.512 349.149 46.512C346.802 46.512 344.861 45.9787 343.325 44.912C341.832 43.8027 341.085 42.1813 341.085 40.048C341.085 37.1893 342.194 34.992 344.413 33.456C346.632 31.8773 350.514 30.768 356.061 30.128L358.621 29.808V26.672C358.621 22.96 358.344 20.464 357.789 19.184C357.234 17.904 356.125 17.264 354.461 17.264C352.84 17.264 351.794 17.4987 351.325 17.968C350.856 18.3947 350.685 18.9067 350.813 19.504C350.941 20.0587 351.154 20.8053 351.453 21.744C351.752 22.6827 351.901 23.4293 351.901 23.984C351.901 25.3067 351.432 26.4373 350.493 27.376C349.597 28.272 348.488 28.72 347.165 28.72C345.885 28.72 344.776 28.272 343.837 27.376C342.898 26.4373 342.429 25.3067 342.429 23.984C342.429 21.808 343.538 19.952 345.757 18.416C348.018 16.8373 351.368 16.048 355.805 16.048C360.285 16.048 363.464 16.9227 365.341 18.672C367.261 20.4213 368.221 23.5147 368.221 27.952V39.472C368.221 41.7333 368.498 43.1627 369.053 43.76C369.608 44.3147 370.632 44.4213 372.125 44.08V44.72ZM349.981 38.768C350.194 40.3893 350.792 41.648 351.773 42.544C352.754 43.3973 353.885 43.824 355.165 43.824C356.488 43.824 357.64 43.184 358.621 41.904V31.024L356.317 31.344C354.354 31.6 352.754 32.3467 351.517 33.584C350.322 34.8213 349.81 36.5493 349.981 38.768ZM412.76 44.72H415.96V46H399.96V44.72H403.16V26.8C403.16 23.7707 402.712 21.616 401.816 20.336C400.92 19.056 399.576 18.416 397.784 18.416C395.352 18.416 393.411 19.696 391.96 22.256V44.72H395.16V46H379.16V44.72H382.36V17.84H379.16V16.56H391.96V19.888C392.771 18.7787 394.029 17.84 395.736 17.072C397.485 16.2613 399.363 15.856 401.368 15.856C408.963 15.856 412.76 19.9733 412.76 28.208V44.72ZM437.178 53.104C436.026 55.5787 434.81 57.3493 433.53 58.416C432.25 59.5253 430.543 60.08 428.41 60.08C426.277 60.08 424.613 59.6107 423.418 58.672C422.223 57.776 421.626 56.56 421.626 55.024C421.626 53.5307 422.053 52.336 422.906 51.44C423.802 50.544 424.869 50.096 426.106 50.096C427.343 50.096 428.389 50.3307 429.242 50.8C430.095 51.2693 430.693 51.7813 431.034 52.336C431.973 53.8293 432.847 54.576 433.658 54.576C434.511 54.576 435.258 53.8507 435.898 52.4L438.586 46.064L423.61 17.84H421.05V16.56H438.266V17.84H435.066L443.642 34.736L451.002 17.84H445.882V16.56H456.378V17.84H452.538L437.178 53.104ZM474.524 17.84V33.456C474.524 37.1253 474.673 39.3653 474.972 40.176C475.27 40.944 475.59 41.6053 475.932 42.16C476.572 43.2693 477.681 43.824 479.26 43.824C480.881 43.824 482.012 43.6107 482.652 43.184V44.464C480.604 45.9147 478.364 46.64 475.932 46.64C472.348 46.64 469.617 45.7867 467.74 44.08C465.862 42.3733 464.924 39.3227 464.924 34.928V17.84H460.188V16.56H464.924C466.972 16.2187 468.785 15.2373 470.364 13.616C471.942 11.952 473.03 9.66933 473.628 6.768H474.524V16.56H481.948V17.84H474.524ZM522.673 44.72H525.873V46H509.873V44.72H513.073V26.8C513.073 23.7707 512.625 21.616 511.729 20.336C510.833 19.056 509.489 18.416 507.697 18.416C505.265 18.416 503.323 19.696 501.873 22.256V44.72H505.073V46H489.073V44.72H492.273V4.4H489.073V3.12H501.873V19.888C502.683 18.736 503.942 17.776 505.649 17.008C507.355 16.24 509.233 15.856 511.281 15.856C518.875 15.856 522.673 19.9733 522.673 28.208V44.72ZM546.323 44.72H549.523V46H533.523V44.72H536.723V17.84H534.163V16.56H546.323V44.72ZM546.899 8.112C546.899 9.648 546.344 10.9707 545.235 12.08C544.168 13.1467 542.845 13.68 541.267 13.68C539.731 13.68 538.408 13.1467 537.299 12.08C536.189 10.9707 535.635 9.648 535.635 8.112C535.635 6.53333 536.189 5.18933 537.299 4.08C538.408 2.97066 539.731 2.416 541.267 2.416C542.845 2.416 544.168 2.97066 545.235 4.08C546.344 5.18933 546.899 6.53333 546.899 8.112ZM590.822 44.72H594.022V46H578.022V44.72H581.222V26.8C581.222 23.7707 580.774 21.616 579.878 20.336C578.982 19.056 577.638 18.416 575.846 18.416C573.414 18.416 571.473 19.696 570.022 22.256V44.72H573.222V46H557.222V44.72H560.422V17.84H557.222V16.56H570.022V19.888C570.833 18.7787 572.092 17.84 573.798 17.072C575.548 16.2613 577.425 15.856 579.43 15.856C587.025 15.856 590.822 19.9733 590.822 28.208V44.72ZM609.48 40.048C609.48 41.2427 610.248 41.9253 611.784 42.096H622.792C626.59 42.096 629.235 42.9067 630.728 44.528C632.222 46.1493 632.734 48.1547 632.264 50.544C631.838 52.9333 630.387 55.1307 627.912 57.136C625.438 59.1413 622.024 60.144 617.672 60.144C609.694 60.144 604.574 58.9707 602.312 56.624C601.459 55.6853 601.096 54.576 601.224 53.296C601.352 52.0587 601.822 51.0347 602.632 50.224C603.443 49.456 604.36 48.9227 605.384 48.624C604.019 47.472 603.336 46.0427 603.336 44.336C603.336 42.6293 603.848 41.1147 604.872 39.792C605.939 38.4267 607.155 37.3387 608.52 36.528C603.614 34.736 601.16 31.5147 601.16 26.864C601.16 23.408 602.739 20.7413 605.896 18.864C609.096 16.944 612.702 15.984 616.712 15.984C618.632 15.984 620.552 16.2827 622.472 16.88C621.491 15.5573 621 13.9787 621 12.144C621 10.3093 621.619 8.79467 622.856 7.6C624.136 6.36267 625.715 5.744 627.592 5.744C629.512 5.744 630.942 6.256 631.88 7.28C632.862 8.26133 633.352 9.37067 633.352 10.608C633.352 11.8453 632.968 12.8907 632.2 13.744C631.475 14.5973 630.494 15.024 629.256 15.024C628.062 15.024 627.102 14.6187 626.376 13.808C625.651 12.9973 625.288 12.1867 625.288 11.376C625.288 10.5227 625.438 9.79733 625.736 9.2C626.078 8.56 626.248 8.19733 626.248 8.112C626.12 7.42933 625.694 7.23733 624.968 7.536C624.243 7.83466 623.603 8.45333 623.048 9.392C622.536 10.288 622.28 11.3333 622.28 12.528C622.28 14.8747 623.326 16.752 625.416 18.16C629.086 20.208 630.92 23.0453 630.92 26.672C630.92 30.2987 629.406 33.0507 626.376 34.928C623.347 36.7627 619.763 37.68 615.624 37.68C613.619 37.68 611.848 37.4667 610.312 37.04C609.758 37.9787 609.48 38.9813 609.48 40.048ZM621.32 26.736C621.32 23.0667 620.894 20.5707 620.04 19.248C619.187 17.9253 617.907 17.264 616.2 17.264C614.536 17.264 613.32 17.9467 612.552 19.312C611.784 20.6347 611.4 23.088 611.4 26.672C611.4 30.256 611.806 32.7733 612.616 34.224C613.427 35.6747 614.643 36.4 616.264 36.4C617.928 36.4 619.187 35.696 620.04 34.288C620.894 32.88 621.32 30.3627 621.32 26.736ZM622.408 50.416H611.656C609.608 50.416 607.88 50.0533 606.472 49.328C605.875 52.4 606.643 54.7467 608.776 56.368C610.952 58.032 613.918 58.864 617.672 58.864C621.427 58.864 624.542 57.9253 627.016 56.048C628.168 55.1947 628.808 54.3413 628.936 53.488C629.064 52.6347 628.574 51.9093 627.464 51.312C626.355 50.7147 624.67 50.416 622.408 50.416Z" fill="black"/>
</svg>
