<svg width="526" height="329" viewBox="0 0 526 329" fill="none" xmlns="http://www.w3.org/2000/svg">
<path d="M43.9226 281.993L46.9092 283.142L46.4496 284.337L31.5167 278.591L31.9763 277.397L34.9629 278.546L41.3977 261.821C42.4855 258.994 42.8411 256.822 42.4645 255.306C42.0879 253.789 41.0634 252.709 39.3909 252.066C37.1211 251.192 34.8496 251.69 32.5764 253.558L24.5099 274.524L27.4965 275.673L27.0368 276.868L12.104 271.122L12.5636 269.928L15.5502 271.077L30.0286 233.446L27.042 232.297L27.5016 231.102L39.4479 235.699L33.4268 251.348C34.597 250.564 36.1165 250.12 37.9851 250.016C39.8537 249.912 41.7437 250.228 43.6551 250.963C50.7432 253.691 52.8088 258.897 49.8519 266.582L43.9226 281.993Z" fill="black"/>
<path d="M67.3372 286.075C67.7563 288.367 69.0866 289.78 71.3279 290.314C73.5693 290.848 75.4193 290.17 76.8778 288.28C78.3364 286.39 79.6436 283.017 80.7996 278.161C81.9655 273.263 82.323 269.642 81.8723 267.298C81.4314 264.913 80.0903 263.453 77.8489 262.919C75.6075 262.386 73.7734 263.09 72.3464 265.031C70.9294 266.93 69.6379 270.329 68.4721 275.227C67.3062 280.124 66.9279 283.74 67.3372 286.075ZM70.907 291.53C66.9639 290.591 63.7005 288.455 61.1171 285.12C58.5336 281.786 57.8051 277.753 58.9314 273.021C59.5341 270.489 60.5292 268.336 61.9166 266.561C63.3455 264.796 64.9661 263.515 66.7785 262.718C68.6324 261.932 70.5209 261.46 72.4441 261.304C74.3771 261.106 76.2775 261.23 78.1453 261.674C80.0131 262.119 81.7653 262.865 83.4019 263.912C85.0899 264.928 86.5634 266.2 87.8225 267.728C89.1232 269.265 90.0137 271.144 90.4941 273.364C90.9745 275.583 90.9183 277.938 90.3255 280.429C89.7327 282.919 88.7267 285.026 87.3077 286.75C85.8887 288.473 84.2522 289.728 82.3983 290.515C78.6806 292.13 74.8502 292.468 70.907 291.53Z" fill="black"/>
<path d="M97.7292 269.191L97.8312 267.916L115.056 269.293L114.954 270.569L111.573 270.299L117.228 286.289L122.206 276.222L120.504 271.013L118.144 270.825L118.246 269.549L134.195 270.825L134.093 272.101L131.286 271.876L136.941 287.866L144.109 272.902L139.005 272.493L139.107 271.218L149.506 272.049L149.404 273.325L145.576 273.019L132.549 300.227L131.209 300.12L122.819 278.197L112.772 298.645L111.433 298.538L100.728 269.431L97.7292 269.191Z" fill="black"/>
<path d="M192.605 297.58C189.216 298.256 186.02 297.502 183.017 295.316C180.014 293.131 178.024 289.591 177.047 284.695C176.07 279.8 176.519 275.729 178.395 272.483C180.271 269.238 182.945 267.268 186.418 266.575C188.134 266.233 189.816 266.267 191.464 266.678C193.112 267.089 194.413 267.938 195.366 269.227L192.411 254.415L189.272 255.042L189.022 253.786L201.574 251.282L209.715 292.077L212.853 291.451L213.104 292.706L200.551 295.211L199.975 292.324C199.33 294.976 196.873 296.728 192.605 297.58ZM197.808 281.466L195.742 271.11C194.161 269.076 192.45 268.243 190.609 268.61C188.81 268.969 187.471 270.324 186.591 272.675C185.712 275.026 185.727 278.482 186.637 283.043C187.539 287.562 188.868 290.734 190.624 292.559C192.38 294.383 194.171 294.962 195.995 294.293C197.008 293.917 197.736 293.423 198.18 292.813C199.16 291.399 199.036 287.617 197.808 281.466Z" fill="black"/>
<path d="M231.635 282.357C233.323 283.965 235.23 284.324 237.356 283.437C239.483 282.549 240.579 280.912 240.647 278.526C240.714 276.14 239.786 272.643 237.863 268.037C235.923 263.391 234.081 260.253 232.337 258.623C230.577 256.954 228.634 256.563 226.508 257.45C224.381 258.338 223.313 259.986 223.301 262.395C223.273 264.765 224.229 268.273 226.169 272.919C228.108 277.565 229.931 280.711 231.635 282.357ZM237.731 284.667C233.991 286.229 230.095 286.422 226.045 285.246C221.994 284.071 219.031 281.239 217.157 276.75C216.155 274.349 215.692 272.022 215.769 269.77C215.886 267.502 216.442 265.513 217.439 263.802C218.475 262.075 219.724 260.583 221.187 259.325C222.633 258.027 224.243 257.009 226.014 256.269C227.786 255.529 229.642 255.101 231.582 254.985C233.544 254.813 235.484 254.974 237.401 255.469C239.357 255.946 241.183 256.941 242.877 258.453C244.572 259.965 245.913 261.902 246.899 264.264C247.885 266.627 248.312 268.922 248.179 271.151C248.046 273.379 247.461 275.357 246.425 277.084C244.37 280.578 241.472 283.105 237.731 284.667Z" fill="black"/>
<path d="M279.386 245.658L263.478 256.636C268.094 262.574 272.632 264.004 277.092 260.927C278.286 260.103 279.444 258.889 280.566 257.285C281.723 255.657 282.302 254.091 282.302 252.588L283.403 252.606C283.527 254.439 282.949 256.418 281.669 258.546C280.39 260.673 278.819 262.379 276.958 263.663C275.132 264.923 273.36 265.886 271.643 266.553C269.901 267.184 268.025 267.546 266.015 267.637C264.004 267.729 261.99 267.175 259.97 265.977C257.986 264.754 256.134 262.896 254.413 260.403C251.481 256.153 250.488 252.199 251.436 248.538C252.359 244.843 254.489 241.844 257.825 239.542C261.196 237.215 264.763 236.413 268.526 237.133C272.325 237.83 275.945 240.672 279.386 245.658ZM262.698 255.619L271.284 249.694C269.055 246.463 266.753 243.878 264.378 241.94C262.039 239.977 260.114 239.517 258.604 240.559C257.094 241.601 256.817 243.529 257.774 246.342C258.706 249.12 260.214 252.019 262.298 255.039L262.698 255.619Z" fill="black"/>
<path d="M307.416 236.383C310.52 233.212 311.203 230.776 309.465 229.075C308.489 228.12 307.159 227.893 305.475 228.394C303.76 228.865 301.944 229.683 300.025 230.851C298.107 232.018 296.142 233.11 294.131 234.127C292.151 235.113 290.104 235.558 287.991 235.46C285.907 235.331 284.041 234.28 282.39 232.306C280.74 230.333 280.141 227.925 280.593 225.084C281.075 222.213 282.525 219.542 284.943 217.073C287.39 214.572 289.756 212.948 292.041 212.199C294.326 211.451 296.229 211.642 297.75 212.772C298.693 213.456 299.321 214.339 299.634 215.422C299.977 216.474 299.731 217.457 298.896 218.372C298.091 219.255 297.161 219.748 296.106 219.85C295.081 219.921 294.263 219.628 293.653 218.971C293.042 218.313 292.717 217.517 292.677 216.582C292.606 215.618 292.418 214.986 292.113 214.688C291.595 214.18 290.721 214.31 289.493 215.078C288.263 215.785 287.007 216.794 285.723 218.105C284.47 219.386 283.73 220.721 283.503 222.111C283.277 223.502 283.59 224.615 284.444 225.45C285.298 226.286 286.522 226.499 288.117 226.09C289.741 225.65 291.468 224.893 293.297 223.817C295.096 222.712 296.94 221.681 298.831 220.726C300.721 219.71 302.676 219.206 304.698 219.215C306.749 219.193 308.568 219.958 310.153 221.51C312.257 223.569 313.218 225.973 313.036 228.72C312.824 231.438 311.241 234.306 308.286 237.325C305.331 240.343 302.471 242.35 299.706 243.345C296.971 244.31 294.797 244.182 293.185 242.962C292.242 242.278 291.614 241.395 291.301 240.312C290.988 239.229 291.234 238.246 292.039 237.362C292.844 236.479 293.759 236.001 294.784 235.93C295.839 235.828 296.672 236.106 297.282 236.763C297.893 237.421 298.233 238.232 298.304 239.196C298.344 240.131 298.517 240.748 298.822 241.046C299.431 241.643 300.621 241.434 302.39 240.42C304.159 239.345 305.834 237.999 307.416 236.383Z" fill="black"/>
<path d="M342.61 194.898L344.593 192.386L345.597 193.179L335.683 205.737L334.678 204.944L336.661 202.432L315.564 185.776L313.977 187.785L312.973 186.992L320.508 177.448L342.61 194.898ZM314.234 171.761C315.44 172.713 316.134 173.968 316.317 175.526C316.494 177.024 316.093 178.393 315.114 179.632C314.163 180.837 312.924 181.545 311.4 181.754C309.842 181.938 308.46 181.553 307.254 180.602C306.015 179.623 305.304 178.355 305.121 176.797C304.938 175.239 305.322 173.857 306.274 172.652C307.252 171.413 308.507 170.718 310.038 170.568C311.597 170.385 312.995 170.783 314.234 171.761Z" fill="black"/>
<path d="M334.987 160.179L347.655 169.31C350.632 171.456 352.536 172.644 353.368 172.876C354.166 173.083 354.89 173.21 355.539 173.258C356.813 173.387 357.912 172.811 358.835 171.531C359.783 170.215 360.271 169.173 360.299 168.405L361.338 169.153C361.317 171.663 360.595 173.904 359.173 175.877C357.078 178.785 354.789 180.501 352.307 181.026C349.824 181.551 346.801 180.529 343.236 177.959L329.373 167.967L326.604 171.809L325.566 171.061L328.335 167.219C329.255 165.358 329.52 163.313 329.127 161.084C328.701 158.831 327.485 156.613 325.481 154.432L326.005 153.705L333.948 159.431L338.289 153.408L339.327 154.157L334.987 160.179Z" fill="black"/>
<path d="M361.458 122.244L374.203 131.269C377.197 133.39 379.111 134.562 379.946 134.787C380.745 134.987 381.47 135.108 382.12 135.15C383.395 135.269 384.489 134.684 385.401 133.396C386.338 132.073 386.817 131.027 386.839 130.258L387.883 130.997C387.884 133.507 387.181 135.754 385.776 137.739C383.705 140.664 381.43 142.399 378.952 142.945C376.475 143.491 373.442 142.494 369.856 139.954L355.91 130.079L353.173 133.944L352.129 133.204L354.866 129.339C355.771 127.471 356.018 125.424 355.607 123.198C355.161 120.948 353.927 118.741 351.905 116.577L352.422 115.846L360.414 121.505L364.704 115.446L365.749 116.186L361.458 122.244Z" fill="black"/>
<path d="M411.447 102.939C411.487 103.541 411.24 104.404 410.709 105.527C410.145 106.622 409.343 107.762 408.301 108.949C405.993 111.578 403.758 112.54 401.596 111.834C401.856 114.901 400.536 118.086 397.637 121.389C396.089 123.152 394.407 124.259 392.592 124.71C390.774 125.1 389.062 124.592 387.459 123.185C385.311 121.299 384.391 119.016 384.701 116.335C384.978 113.626 386.706 109.976 389.884 105.386L391.332 103.25L388.975 101.182C386.186 98.7329 384.127 97.2947 382.799 96.8671C381.471 96.4396 380.258 96.8511 379.16 98.1016C378.091 99.3201 377.578 100.261 377.621 100.923C377.632 101.557 377.904 102.023 378.437 102.321C378.939 102.591 379.64 102.923 380.543 103.318C381.445 103.712 382.105 104.093 382.522 104.459C383.516 105.331 384.056 106.43 384.142 107.755C384.225 109.019 383.829 110.148 382.957 111.142C382.112 112.104 381.044 112.642 379.751 112.757C378.427 112.843 377.267 112.45 376.273 111.577C374.638 110.142 373.975 108.084 374.284 105.403C374.59 102.662 376.206 99.6242 379.133 96.2894C382.089 92.9225 384.843 91.1107 387.396 90.8538C389.977 90.5649 392.935 91.8841 396.27 94.8114L404.928 102.411C406.627 103.903 407.884 104.637 408.699 104.615C409.482 104.564 410.238 103.864 410.966 102.517L411.447 102.939ZM392.366 115.655C393.725 116.564 395.065 116.945 396.386 116.799C397.675 116.624 398.741 116.056 399.586 115.094C400.458 114.1 400.737 112.812 400.423 111.23L392.246 104.053L390.966 105.995C389.864 107.639 389.37 109.334 389.483 111.08C389.625 112.794 390.586 114.319 392.366 115.655Z" fill="black"/>
<path d="M425.881 92.7055C429.504 90.1434 430.613 87.8696 429.209 85.8839C428.421 84.7692 427.153 84.3069 425.406 84.4971C423.635 84.6524 421.701 85.1318 419.604 85.9354C417.507 86.7389 415.378 87.4605 413.218 88.1001C411.092 88.715 408.998 88.7845 406.937 88.3086C404.911 87.808 403.263 86.4387 401.994 84.2008C400.725 81.9628 400.568 79.487 401.523 76.7735C402.513 74.0353 404.419 71.6685 407.241 69.673C410.097 67.6528 412.717 66.4798 415.099 66.1537C417.481 65.8277 419.319 66.3571 420.612 67.7421C421.417 68.5841 421.876 69.5658 421.99 70.6873C422.138 71.7842 421.72 72.7072 420.734 73.4565C419.783 74.1811 418.78 74.4988 417.724 74.4095C416.703 74.2956 415.951 73.8605 415.468 73.1043C414.986 72.3482 414.809 71.5066 414.937 70.5797C415.041 69.618 414.969 68.9629 414.723 68.6146C414.304 68.0223 413.421 67.9934 412.075 68.5277C410.738 69.0025 409.321 69.7696 407.823 70.8289C406.36 71.8636 405.392 73.0445 404.92 74.3715C404.447 75.6985 404.556 76.8498 405.246 77.8252C405.936 78.8006 407.102 79.2301 408.744 79.1139C410.421 78.973 412.256 78.5377 414.248 77.8081C416.216 77.0436 418.216 76.3611 420.247 75.7606C422.289 75.1006 424.303 74.9564 426.29 75.3278C428.312 75.6746 429.964 76.7537 431.245 78.5652C432.945 80.9689 433.459 83.5058 432.786 86.1761C432.089 88.8115 430.017 91.3486 426.568 93.7876C423.119 96.2265 419.945 97.6871 417.046 98.1695C414.182 98.6272 412.067 98.1113 410.7 96.6218C409.895 95.7798 409.436 94.798 409.323 93.6766C409.209 92.5551 409.627 91.632 410.578 90.9074C411.529 90.1827 412.515 89.8774 413.536 89.9913C414.592 90.0806 415.361 90.5034 415.844 91.2595C416.326 92.0157 416.516 92.8747 416.412 93.8364C416.284 94.7633 416.343 95.401 416.589 95.7493C417.082 96.446 418.289 96.4542 420.212 95.7738C422.145 95.034 424.035 94.0112 425.881 92.7055Z" fill="black"/>
<path d="M439.039 53.9775L445.133 68.3553C446.565 71.7337 447.577 73.7378 448.168 74.3676C448.743 74.9581 449.296 75.4421 449.827 75.8196C450.849 76.5912 452.087 76.669 453.54 76.0529C455.033 75.4202 455.991 74.7825 456.413 74.1399L456.913 75.3184C455.593 77.4533 453.814 78.9953 451.575 79.9444C448.275 81.3431 445.428 81.6231 443.033 80.7844C440.639 79.9457 438.584 77.5032 436.869 73.457L430.2 57.724L425.84 59.5723L425.34 58.3938L429.701 56.5455C431.453 55.432 432.74 53.8208 433.561 51.712C434.365 49.5638 434.476 47.0376 433.893 44.1332L434.718 43.7835L438.54 52.799L445.375 49.9018L445.874 51.0803L439.039 53.9775Z" fill="black"/>
<path d="M486.438 55.8554L467.628 60.2977C469.769 67.508 473.476 70.4904 478.75 69.2449C480.162 68.9115 481.682 68.2018 483.311 67.1157C484.981 66.0198 486.089 64.7717 486.635 63.3714L487.654 63.7883C487.103 65.5405 485.845 67.1747 483.88 68.691C481.914 70.2074 479.831 71.2254 477.63 71.7451C475.471 72.2551 473.471 72.5084 471.628 72.505C469.777 72.4601 467.898 72.1147 465.991 71.4689C464.085 70.823 462.409 69.5748 460.964 67.7241C459.56 65.8636 458.51 63.4593 457.814 60.511C456.627 55.4866 457.141 51.4416 459.354 48.3762C461.558 45.2692 464.632 43.2499 468.577 42.3183C472.563 41.3769 476.178 41.926 479.422 43.9658C482.707 45.9957 485.046 49.9589 486.438 55.8554ZM467.271 59.0667L477.424 56.669C476.522 52.8488 475.317 49.6041 473.81 46.9351C472.344 44.2562 470.719 43.1276 468.933 43.5493C467.148 43.971 466.189 45.6661 466.057 48.6345C465.915 51.5614 466.266 54.8105 467.109 58.3816L467.271 59.0667Z" fill="black"/>
<path d="M501.964 29.7862C507.474 29.1478 511.626 29.9552 514.422 32.2085C515.992 33.5298 516.808 35.1963 516.869 37.208C516.926 39.1772 516.474 40.8403 515.515 42.1971C514.55 43.5115 513.382 44.5488 512.01 45.3092C510.675 46.0222 509.359 46.7116 508.061 47.3773C505.11 48.9649 504.083 51.0382 504.981 53.5972L503.9 53.7224C501.053 52.506 499.638 50.6727 499.655 48.2225C499.659 47.1482 500.034 46.1169 500.778 45.1286C501.518 44.098 502.322 43.2531 503.19 42.5941C504.059 41.9351 504.87 41.1539 505.625 40.2504C506.417 39.2996 506.867 38.3669 506.976 37.4523C507.229 35.1894 506.725 33.6157 505.462 32.7311C504.195 31.8041 502.778 31.4315 501.209 31.6132C499.641 31.7949 498.171 32.2659 496.799 33.0262C495.426 33.7865 494.772 34.4422 494.836 34.9932C494.895 35.5018 495.158 35.9222 495.627 36.2546C496.09 36.5445 496.588 36.766 497.121 36.919C497.654 37.072 498.167 37.4206 498.66 37.9648C499.152 38.5091 499.455 39.2686 499.568 40.2435C499.676 41.1759 499.371 42.0702 498.655 42.9264C497.938 43.7826 496.986 44.2794 495.799 44.4169C494.612 44.5544 493.496 44.1898 492.451 43.323C491.448 42.4513 490.863 41.295 490.696 39.854C490.416 37.4381 491.304 35.2736 493.358 33.3604C495.451 31.3999 498.319 30.2085 501.964 29.7862ZM506.254 67.3662C504.643 67.5528 503.2 67.1402 501.923 66.1284C500.646 65.1167 499.914 63.8055 499.727 62.195C499.536 60.542 499.946 59.0771 500.958 57.8002C501.969 56.5232 503.281 55.7915 504.891 55.6048C506.544 55.4133 508.009 55.8235 509.286 56.8352C510.563 57.847 511.297 59.1793 511.489 60.8323C511.675 62.4428 511.263 63.8866 510.251 65.1635C509.239 66.4404 507.907 67.1747 506.254 67.3662Z" fill="black"/>
</svg>
