<svg width="531" height="518" viewBox="0 0 531 518" fill="none" xmlns="http://www.w3.org/2000/svg">
<path d="M466.616 24.8062L465.422 27.7749L464.234 27.2971L470.207 12.4537L471.394 12.9315L470.2 15.9002L495.137 25.934L496.092 23.559L497.28 24.0368L492.741 35.3179L466.616 24.8062ZM500.363 39.0057C498.938 38.4324 497.918 37.4241 497.303 35.9808C496.712 34.5931 496.711 33.1669 497.3 31.7024C497.873 30.2774 498.862 29.2494 500.266 28.6184C501.709 28.0034 503.143 27.9825 504.568 28.5559C506.032 29.1452 507.072 30.1615 507.687 31.6047C508.302 33.0479 508.323 34.4821 507.75 35.907C507.161 37.3716 506.152 38.3916 504.725 38.9671C503.282 39.5821 501.828 39.595 500.363 39.0057Z" fill="black"/>
<path d="M483.008 55.6192L468.593 49.612C465.206 48.2004 463.081 47.4766 462.218 47.4404C461.394 47.4207 460.661 47.4616 460.017 47.5633C458.747 47.7273 457.809 48.5379 457.201 49.9951C456.578 51.4917 456.34 52.6174 456.487 53.3723L455.306 52.8799C454.754 50.4315 454.947 48.0848 455.882 45.84C457.261 42.5318 459.099 40.3395 461.396 39.2631C463.694 38.1868 466.871 38.4939 470.927 40.1844L486.701 46.7579L488.522 42.3863L489.704 42.8787L487.882 47.2503C487.409 49.272 487.618 51.3233 488.507 53.4042C489.436 55.5015 491.124 57.3839 493.572 59.0513L493.228 59.8784L484.189 56.1116L481.333 62.9643L480.152 62.4719L483.008 55.6192Z" fill="black"/>
<path d="M469.789 87.026L470.952 87.5604L463.737 103.262L462.574 102.727L463.99 99.6452L447.031 99.4584L454.773 107.594L460.249 107.787L461.237 105.635L462.4 106.169L455.719 120.708L454.556 120.173L455.732 117.615L438.773 117.428L450.361 129.303L452.498 124.651L453.662 125.186L449.305 134.665L448.142 134.13L449.746 130.641L428.675 109.054L429.236 107.833L452.707 107.491L436.959 91.0267L437.521 89.8055L468.533 89.7592L469.789 87.026Z" fill="black"/>
<path d="M406.744 156.812C406.554 156.239 406.573 155.342 406.803 154.121C407.071 152.919 407.558 151.612 408.264 150.201C409.83 147.072 411.749 145.575 414.019 145.71C412.99 142.809 413.459 139.394 415.427 135.464C416.477 133.366 417.823 131.868 419.464 130.972C421.125 130.133 422.909 130.192 424.817 131.146C427.373 132.426 428.841 134.402 429.222 137.073C429.64 139.764 428.894 143.732 426.984 148.979L426.124 151.411L428.928 152.815C432.247 154.477 434.603 155.346 435.996 155.423C437.389 155.5 438.458 154.794 439.203 153.306C439.929 151.857 440.187 150.817 439.977 150.187C439.806 149.576 439.424 149.194 438.833 149.042C438.28 148.908 437.516 148.764 436.543 148.611C435.57 148.458 434.836 148.257 434.34 148.009C433.157 147.417 432.356 146.491 431.937 145.232C431.537 144.029 431.633 142.837 432.225 141.654C432.798 140.509 433.695 139.718 434.916 139.28C436.176 138.861 437.397 138.947 438.58 139.539C440.526 140.513 441.689 142.336 442.069 145.007C442.468 147.736 441.675 151.085 439.689 155.052C437.683 159.059 435.478 161.509 433.074 162.405C430.65 163.339 427.454 162.813 423.486 160.827L413.185 155.67C411.163 154.658 409.76 154.266 408.978 154.494C408.234 154.742 407.68 155.61 407.317 157.098L406.744 156.812ZM421.979 139.674C420.434 139.139 419.041 139.11 417.8 139.587C416.598 140.082 415.71 140.902 415.137 142.047C414.545 143.23 414.602 144.546 415.307 145.997L425.036 150.867L425.782 148.663C426.431 146.794 426.48 145.029 425.927 143.368C425.355 141.746 424.039 140.515 421.979 139.674Z" fill="black"/>
<path d="M395.726 175.918C393.624 179.826 393.643 182.356 395.785 183.508C396.987 184.155 398.328 184.004 399.807 183.056C401.324 182.128 402.842 180.837 404.362 179.184C405.881 177.53 407.465 175.936 409.115 174.401C410.744 172.903 412.587 171.908 414.645 171.416C416.682 170.962 418.767 171.454 420.9 172.892C423.033 174.33 424.277 176.477 424.63 179.332C424.964 182.224 424.312 185.192 422.675 188.236C421.017 191.317 419.194 193.534 417.207 194.887C415.219 196.24 413.338 196.585 411.563 195.921C410.468 195.526 409.62 194.851 409.018 193.898C408.397 192.982 408.36 191.969 408.909 190.859C409.437 189.787 410.194 189.056 411.179 188.665C412.144 188.312 413.011 188.367 413.78 188.829C414.549 189.291 415.082 189.965 415.38 190.852C415.716 191.76 416.072 192.314 416.447 192.517C417.086 192.86 417.889 192.493 418.857 191.415C419.842 190.394 420.769 189.076 421.638 187.46C422.487 185.882 422.828 184.394 422.66 182.995C422.491 181.597 421.881 180.614 420.829 180.049C419.777 179.483 418.542 179.617 417.123 180.453C415.684 181.326 414.236 182.533 412.777 184.074C411.356 185.635 409.87 187.137 408.318 188.579C406.784 190.08 405.045 191.106 403.101 191.659C401.136 192.249 399.176 192.019 397.223 190.968C394.63 189.573 393.04 187.531 392.452 184.84C391.902 182.17 392.628 178.976 394.629 175.256C396.63 171.536 398.821 168.814 401.201 167.091C403.562 165.405 405.685 164.925 407.573 165.65C408.668 166.045 409.517 166.719 410.118 167.673C410.719 168.626 410.756 169.639 410.227 170.711C409.699 171.784 408.952 172.496 407.987 172.849C407.002 173.24 406.125 173.204 405.356 172.742C404.587 172.28 404.035 171.595 403.7 170.688C403.402 169.801 403.065 169.256 402.689 169.054C401.937 168.65 400.853 169.181 399.434 170.646C398.033 172.17 396.797 173.927 395.726 175.918Z" fill="black"/>
<path d="M401.898 222.238L402.984 222.915L393.85 237.583L392.763 236.907L394.556 234.027L377.755 231.707L384.411 240.753L389.82 241.633L391.071 239.623L392.158 240.3L383.7 253.881L382.613 253.204L384.102 250.814L367.301 248.494L377.301 261.734L380.008 257.388L381.095 258.064L375.58 266.919L374.493 266.243L376.523 262.983L358.337 238.916L359.048 237.775L382.376 240.39L368.826 222.074L369.536 220.934L400.308 224.792L401.898 222.238Z" fill="black"/>
<path d="M343.66 267.704C341.379 267.225 339.568 267.922 338.226 269.795C336.885 271.669 336.813 273.638 338.011 275.702C339.209 277.767 341.837 280.253 345.896 283.159C349.989 286.09 353.206 287.79 355.547 288.259C357.922 288.753 359.78 288.063 361.122 286.19C362.463 284.317 362.505 282.353 361.248 280.298C360.025 278.268 357.367 275.787 353.274 272.856C349.18 269.925 345.976 268.207 343.66 267.704ZM337.26 268.946C339.62 265.651 342.832 263.437 346.895 262.306C350.959 261.175 354.968 262.025 358.922 264.857C361.038 266.373 362.656 268.108 363.774 270.063C364.868 272.054 365.441 274.038 365.494 276.017C365.521 278.031 365.243 279.958 364.661 281.797C364.113 283.661 363.28 285.374 362.163 286.935C361.045 288.496 359.692 289.836 358.103 290.955C356.525 292.134 354.79 293.017 352.9 293.605C350.984 294.228 348.908 294.342 346.672 293.948C344.436 293.553 342.277 292.611 340.195 291.12C338.114 289.63 336.544 287.902 335.484 285.937C334.425 283.971 333.882 281.982 333.855 279.968C333.765 275.916 334.9 272.242 337.26 268.946Z" fill="black"/>
<path d="M304.07 314.718L302.038 317.19L301.049 316.377L311.211 304.019L312.2 304.832L310.168 307.303L324.009 318.685C326.349 320.609 328.298 321.631 329.855 321.752C331.413 321.873 332.761 321.242 333.899 319.858C335.444 317.979 335.688 315.667 334.632 312.92L317.281 298.652L315.249 301.124L314.26 300.311L324.422 287.953L325.411 288.766L323.379 291.237L344.141 308.31L346.173 305.838L347.162 306.651L339.032 316.538L336.461 314.424C336.803 315.755 336.729 317.323 336.238 319.129C335.753 320.995 334.874 322.703 333.6 324.252C328.777 330.118 323.185 330.436 316.824 325.206L304.07 314.718Z" fill="black"/>
<path d="M280.066 333.87C282.497 331.413 285.568 330.251 289.28 330.383C292.991 330.515 296.621 332.337 300.169 335.848C303.717 339.36 305.621 342.986 305.882 346.726C306.142 350.465 305.027 353.594 302.536 356.111C301.305 357.354 299.892 358.266 298.296 358.848C296.7 359.429 295.146 359.452 293.635 358.917L304.37 369.542L306.621 367.268L307.531 368.168L298.526 377.265L268.96 348.001L266.709 350.276L265.799 349.375L274.804 340.278L276.896 342.349C275.948 339.789 277.004 336.963 280.066 333.87ZM284.765 350.138L292.27 357.566C294.718 358.368 296.603 358.102 297.923 356.768C299.214 355.464 299.566 353.592 298.981 351.151C298.395 348.71 296.449 345.854 293.144 342.582C289.869 339.341 286.993 337.455 284.516 336.924C282.04 336.394 280.232 336.916 279.094 338.491C278.465 339.369 278.137 340.185 278.111 340.94C278.089 342.659 280.307 345.725 284.765 350.138Z" fill="black"/>
<path d="M230.665 393.346L245.708 381.21C240.661 375.633 236.029 374.546 231.811 377.948C230.682 378.859 229.618 380.156 228.619 381.84C227.586 383.55 227.127 385.154 227.239 386.653L226.14 386.717C225.88 384.899 226.308 382.882 227.425 380.665C228.542 378.448 229.98 376.63 231.74 375.21C233.467 373.817 235.162 372.724 236.824 371.931C238.514 371.171 240.357 370.67 242.355 370.428C244.353 370.187 246.404 370.588 248.507 371.633C250.578 372.704 252.564 374.418 254.466 376.776C257.707 380.794 258.993 384.663 258.322 388.384C257.677 392.138 255.778 395.288 252.623 397.833C249.435 400.405 245.938 401.472 242.131 401.035C238.292 400.624 234.47 398.061 230.665 393.346ZM246.562 382.166L238.443 388.716C240.907 391.771 243.396 394.176 245.909 395.932C248.388 397.714 250.342 398.029 251.77 396.877C253.198 395.725 253.33 393.782 252.166 391.048C251.028 388.348 249.308 385.569 247.004 382.713L246.562 382.166Z" fill="black"/>
<path d="M191.711 401.719L205.355 393.362L206.023 394.453L203.294 396.125L217.334 419.047L220.063 417.376L220.731 418.467L209.816 425.153L205.838 418.658C206.603 420.641 206.912 422.453 206.766 424.094C206.583 425.757 206.094 427.082 205.298 428.07C204.466 429.08 203.577 429.875 202.631 430.454C201.648 431.056 200.609 431.442 199.513 431.613C198.403 431.843 197.306 431.564 196.224 430.776C195.163 430.025 194.51 428.999 194.264 427.698C194.04 426.435 194.304 425.272 195.055 424.212C195.77 423.173 196.646 422.562 197.684 422.377C198.721 422.191 199.589 422.26 200.287 422.583C201.007 422.943 201.596 423.332 202.054 423.753C203.242 424.876 204.146 425.248 204.764 424.869C205.455 424.446 205.484 422.777 204.85 419.863C204.239 416.986 203.119 414.219 201.492 411.563L195.108 401.139L192.379 402.81L191.711 401.719Z" fill="black"/>
<path d="M135.995 421.028L150.794 414.946L151.281 416.13L148.321 417.347L158.539 442.209L162.091 440.749L162.577 441.933L159.026 443.393C162.594 452.075 160.471 458.021 152.657 461.233C149.895 462.368 147.54 462.644 145.593 462.06C143.663 461.516 142.381 460.474 141.749 458.935C141.36 457.988 141.367 457.108 141.771 456.296C142.153 455.54 142.757 454.991 143.586 454.651C145.717 453.775 147.302 454.6 148.34 457.126C149.394 459.691 150.671 460.665 152.171 460.049C153.276 459.595 153.628 458.32 153.228 456.224C152.844 454.167 151.817 451.107 150.146 447.042L142.451 450.205L141.964 449.021L149.66 445.858L139.441 420.996L136.482 422.212L135.995 421.028Z" fill="black"/>
<path d="M72.4052 436.531L72.9373 439.881C73.5572 438.616 74.6674 437.446 76.2679 436.371C77.833 435.345 79.6058 434.675 81.5863 434.36C89.0869 433.169 93.4831 436.639 94.7749 444.772L97.3651 461.08L100.525 460.578L100.726 461.842L88.0847 463.85L85.0729 444.887C84.5977 441.896 83.8172 439.838 82.7315 438.714C81.6458 437.591 80.2181 437.169 78.4483 437.451C76.0885 437.825 74.372 439.394 73.2987 442.157L76.8226 464.342L79.983 463.84L80.1838 465.105L67.5422 467.113L63.1248 439.301L59.9645 439.803L59.7637 438.539L72.4052 436.531Z" fill="black"/>
<path d="M10.2881 454.45L7.13317 454.985L6.9192 453.723L22.694 451.048L22.908 452.31L19.7531 452.845L26.4933 492.598L29.6483 492.063L29.8623 493.325L17.2424 495.465L10.2881 454.45Z" fill="black"/>
</svg>
